<svg xmlns="http://www.w3.org/2000/svg" xmlns:xlink="http://www.w3.org/1999/xlink" width="600" height="400" xmlns:v="https://vecta.io/nano"><style><![CDATA[.B{stroke:#000}.C{fill:none}.D{fill:#fff}.E{stroke-width:.208}.F{stroke-linejoin:round}.G{stroke-width:.443}.H{stroke-width:.428}.I{stroke-linecap:round}.J{fill:#fc0}.K{fill:#c88242}.L{fill:#be0027}.M{fill:#4c86c7}.N{fill:#768692}.O{stroke-width:.417}.P{stroke-width:.221}]]></style><path d="M400 0h200v400H400z" class="J"/><path d="M200 0h200v400H200z" fill="#0077c8"/><path d="M0 0h200v400H0z" class="D"/><g transform="matrix(.172775 0 0 .17818 224.41166 136.30081)"><g transform="matrix(14.062536 0 0 14.06231 -3003.4192 -4700.1766)"><path d="M249.677 346.078c.026-.027.045-.058.067-.087l.021.067c-.03.008-.062.008-.089.019zm-8.024-2.188c-.016.031-.037.058-.055.086.014-.029.03-.061.056-.086zm-2.029 2.162l.023-.071c.043.033.065.066.097.097-.038-.015-.08-.017-.12-.026zm-14.608 30.112zm9.603-29.52v-.001c.002.007.002.017.004.026 0-.009-.004-.017-.004-.025zm20.185-.001v.001c0 .009-.004.017-.005.025.002-.009.002-.018.004-.026zm19.655 27.731c.731-.778 1.098-1.799 1.098-2.821-.174-1.242-.609-3.215-2.111-3.265-.372-.012-1.016.447-1.016.447-.602.427-.529 1.443.002 2.009.411.438.411 1.179 0 1.617a.94.94 0 0 1-.691.309c-.082 0-.283-.087-.344-.343-.353-1.534-1.223-2.843-2.454-3.713-2.368-1.719-3.781-4.568-3.781-7.623l.031-4.757c0-2.329-1.49-4.362-3.624-4.948-.034-.009-1.001-.328-1.515-.3-.4.022-.776.202-1.143.358-.01.004-.023.019-.03.017l-.905-.33-.533-.139-.319-.066c-.414-.065-.809.099-1.079.45-.24.368-.353.854-.353 1.477 0 .267.056.605.098.923-.187-.053-.364-.144-.562-.144-.97 0-1.79.65-2.097 1.552h-1.154l1.409-2.673c.034.017.709-.026.709-.026a.8.8 0 0 0 .668-.443c.057-.113.085-.235.085-.357 0-.079-.046-.149-.067-.224.372-.291.648-.689.648-1.201l-.062-.157c.347-.301.6-.696.6-1.16a1.56 1.56 0 0 0-.101-.555c-.046-.126-.147-.212-.222-.319a1.65 1.65 0 0 0 .11-.554 1.6 1.6 0 0 0-.408-1.072c-.157-.174-.349-.298-.557-.384-.101-.466-.349-.897-.801-1.115a1.47 1.47 0 0 0-.755-.128c-.265-.371-.633-.653-1.118-.684-.212-.012-.403.07-.597.141l-.196-.231-1.196-.083c-.166.057-.282.187-.415.293l-.403-.219-.127.041c-.275-.458-.682-.817-1.249-.817-.201 0-.373.104-.553.179-.258-.191-.552-.338-.892-.338-.044 0-.073.041-.115.045v-.73c0-.35-.251-.593-.565-.704-.101-.327-.353-.59-.714-.59h-.762c-.36 0-.613.264-.715.59-.312.11-.565.353-.565.704v.727c-.042-.003-.071-.042-.114-.042-.341 0-.637.148-.892.339-.182-.075-.352-.179-.556-.179-.565 0-.972.358-1.246.817l-.13-.041-.4.219c-.133-.106-.248-.236-.414-.292l-1.19.08-.2.232c-.192-.071-.383-.151-.596-.139-.485.03-.853.314-1.12.685-.258-.019-.516.009-.76.128-.45.217-.697.647-.797 1.112-.208.086-.399.211-.557.384-.273.302-.406.689-.406 1.074 0 .189.042.375.107.553-.075.107-.176.194-.224.319-.067.181-.099.369-.099.554 0 .461.251.857.599 1.16l-.062.158c0 .504.267.902.629 1.193-.024.077-.07.151-.07.233 0 .121.028.242.083.355.128.258.382.427.669.446l.679.042c.157.175.784 1.353 1.457 2.656h-1.194c-.308-.899-1.127-1.547-2.095-1.547-.199 0-.375.092-.562.142l.105-.997c0-.847-.201-1.168-.286-1.301-.347-.452-.74-.616-1.157-.552l-.325.068-.523.135-.906.331c-.006.002-.017-.011-.027-.015-.367-.156-.745-.335-1.145-.358-.478-.027-1.411.27-1.411.27-2.24.612-3.73 2.645-3.73 4.973l.018 2.632v.656a185.5 185.5 0 0 1 .014 1.479c0 3.049-1.414 5.895-3.781 7.608-1.229.874-2.1 2.184-2.451 3.694-.065.283-.266.368-.349.368a.94.94 0 0 1-.692-.308c-.206-.217-.308-.513-.308-.806a1.19 1.19 0 0 1 .309-.811c.264-.284.396-.645.396-1.006s-.13-.727-.399-1.006c-.002-.002-.643-.441-1.013-.44s-1.014.444-1.014.444c-1.578 1.443-1.461 4.086.001 5.641a3.69 3.69 0 0 0 3.873.977l.029.417c0 .618-.357 1.174-.889 1.382-.294.114-.496.361-.511.676l-.026.522c0 1.046.306 2.048.888 2.901.344.533.564 1.075.674 1.653.255 1.138 1.178 1.646 1.93 1.646h2.253a.8.8 0 0 0 .803-.801c0-1.385-.965-2.487-2.216-2.748-.237-.31-.41-.672-.41-1.083 0-.714.39-1.346.996-1.611 1.082-.485 1.834-1.459 2.112-2.604.511.114.593.164.593.468-.096.546-.199.48-.279.742-.078.253.148.529.436.673.482.24 1.276 1.422 1.639 2.278.348.773 1.045 1.243 1.826 1.243h1.931a.8.8 0 0 0 .802-.801c0-1.346-.913-2.523-2.171-2.8-.395-.091-.677-.483-.677-.934a1.01 1.01 0 0 1 .253-.678c.391-.421.604-.97.191-2.278s-1.176-1.969-2.014-2.487c.718-.723 1.501-1.367 2.394-1.811 1.498-.693 2.628-2.028 3.159-3.668l.888-.875v9.495c0 6.794 10.826 6.872 11.287 6.872s11.284-.078 11.284-6.872v-9.52c.012.013.652.643.909.899.533 1.638 1.662 2.974 3.161 3.669.892.44 1.673 1.082 2.391 1.805-.836.516-1.787 1.086-2.202 2.4s-.009 1.952.378 2.367a1.01 1.01 0 0 1 .255.68c0 .45-.284.842-.676.931-1.26.275-2.173 1.453-2.173 2.8 0 .442.36.802.803.802h1.931c.783 0 1.48-.469 1.819-1.225.369-.872 1.16-2.053 1.646-2.296.289-.146.481-.341.481-.602a.66.66 0 0 0-.048-.239l-.213-.544-.046-.095c.008-.223.12-.302.576-.403.276 1.146 1.028 2.118 2.1 2.59.608.273 1.01.921 1.01 1.624 0 .407-.175.768-.411 1.081a2.79 2.79 0 0 0-2.216 2.75.8.8 0 0 0 .801.801h2.257c.75 0 1.671-.506 1.923-1.616.114-.609.333-1.151.659-1.64a5.21 5.21 0 0 0 .908-2.941l-.026-.523c-.016-.317-.217-.566-.513-.681-.53-.204-.885-.759-.885-1.38l.025-.416c1.332.442 2.841.122 3.873-.977zm-47.224-32.909c.374.828 1.049 1.425 1.82 1.87-.226.244-.522.443-1.004.638a.8.8 0 0 0-.503.743c0 .011.001.021.001.032a.8.8 0 0 0 .563.734c1.304.406 7.09.647 10.829-3.162.165-.168.266-.427.266-.674a.74.74 0 0 0-.093-.371l-.031-.053c1.823-.232 3.658-.389 5.486-.389 1.924 0 3.781.157 5.613.391-.007.013-.03.051-.03.051-.064.11-.092.24-.092.373 0 .245.099.504.262.671 3.737 3.807 9.525 3.569 10.83 3.162a.8.8 0 0 0 .562-.732c0-.012.002-.023.002-.034a.8.8 0 0 0-.502-.743c-.485-.196-.78-.395-1.007-.638.773-.446 1.449-1.045 1.824-1.879 0-.001.206-.546.206-.546a.77.77 0 0 0 .05-.268.79.79 0 0 0-.258-.57c-.233-.222-.585-.256-.88-.128-.311.135-.673.208-1.079.217-.89.021-3.329-.434-3.978-1.611-.045-1.445-1.069-2.687-2.488-2.969a49.55 49.55 0 0 0-8.907-.808c-3.103 0-6.088.269-8.999.799a3.13 3.13 0 0 0-2.524 2.979c-.647 1.177-3.089 1.633-3.979 1.611-.405-.009-.767-.082-1.08-.217-.295-.128-.648-.093-.881.13-.164.156-.255.358-.255.569 0 .088.017.179.049.267l.209.554z" class="D"/><use xlink:href="#B" class="J"/><use xlink:href="#B" class="B C G"/><use xlink:href="#C" class="J"/><use xlink:href="#C" class="B C G"/><use xlink:href="#D" class="J"/><use xlink:href="#D" class="B C G"/><use xlink:href="#E" class="J"/><use xlink:href="#E" class="B C G"/><use xlink:href="#F" fill="#da291c"/><use xlink:href="#F" class="B C F O"/><path d="M246.071 349.684l-1.373-.904-1.355.904.527-4.645h1.668l.532 4.645z" fill="#ecd21c"/><path d="M246.071 349.684l-1.373-.904-1.355.904.527-4.645h1.668l.532 4.645z" class="B J O"/><use xlink:href="#G" class="D"/><use xlink:href="#G" class="B C E"/><use xlink:href="#H" class="D"/><use xlink:href="#H" class="B C E"/><use xlink:href="#I" class="D"/><use xlink:href="#I" class="B C E"/><use xlink:href="#J" class="D"/><use xlink:href="#J" class="B C E"/><use xlink:href="#K" class="D"/><use xlink:href="#K" class="B C E"/><use xlink:href="#L" class="D"/><use xlink:href="#L" class="B C E"/><use xlink:href="#M" class="D"/><use xlink:href="#M" class="B C E"/><use xlink:href="#N" class="D"/><use xlink:href="#N" class="B C E"/><use xlink:href="#O" class="D"/><use xlink:href="#O" class="B C E"/><use xlink:href="#P" class="D"/><use xlink:href="#P" class="B C E"/><use xlink:href="#Q" class="D"/><use xlink:href="#Q" class="B C E"/><use xlink:href="#R" class="D"/><use xlink:href="#R" class="B C E"/><use xlink:href="#S" class="D"/><use xlink:href="#S" class="B C E"/><use xlink:href="#T" class="D"/><use xlink:href="#T" class="B C E"/><use xlink:href="#U" class="D"/><use xlink:href="#U" class="B C E"/><use xlink:href="#V" class="D"/><use xlink:href="#V" class="B C E"/><use xlink:href="#W" class="D"/><use xlink:href="#W" class="B C E"/><use xlink:href="#X" class="D"/><use xlink:href="#X" class="B C E"/><use xlink:href="#Y" class="D"/><use xlink:href="#Y" class="B C E"/><use xlink:href="#Z" class="D"/><use xlink:href="#Z" class="B C E"/><use xlink:href="#a" class="D"/><use xlink:href="#a" class="B C E"/><use xlink:href="#b" class="D"/><use xlink:href="#b" class="B C E"/><use xlink:href="#c" class="D"/><use xlink:href="#c" class="B C E"/><use xlink:href="#d" class="D"/><use xlink:href="#d" class="B C E"/><use xlink:href="#e" class="D"/><use xlink:href="#e" class="B C E"/><path d="M253.663 351.009c-.216-.326-.523-.519-.864-.552-.133-.008-.26.009-.377.046-.013-.005-.021-.017-.032-.022l-.199-.114-.191.125c-.045.029-.072.066-.107.099-.007-.004-.011-.01-.018-.015l-.201-.106-.179.126c-.188-.096-.387-.146-.582-.138l-.257.013-.012.037c-.137-.15-.321-.258-.526-.323l-.048-.222-.215-.067-.024-.002c-.002-.055-.006-.105-.018-.164l-.054-.225-.215-.059c-.056-.213-.153-.408-.292-.557l-.179-.189-.24.102c-.184.078-.347.219-.48.392-.008-.001-.218-.032-.218-.032l-.136.186c-.034.045-.061.093-.084.14-.018-.005-.24-.032-.24-.032l-.131.186c-.213-.02-.424.005-.606.087l-.106.046-.135-.096c-.171-.126-.387-.19-.611-.213l-.097-.227-.225-.019-.039-.001c-.012-.057-.029-.114-.056-.173l-.096-.211-.223-.01h-.009c-.1-.214-.24-.394-.416-.517l-.214-.151-.211.151c-.176.123-.315.303-.415.517h-.009l-.225.01-.096.211c-.028.059-.044.116-.057.173l-.039.001-.223.019-.092.214c-.23.035-.446.1-.617.226l-.142.101-.121-.051c-.183-.082-.394-.107-.609-.087-.005-.006-.126-.186-.126-.186l-.226.027c-.042-.043-.066-.09-.1-.135l-.136-.186-.219.032c-.132-.173-.297-.314-.483-.392l-.237-.102-.181.189c-.139.148-.236.344-.294.557-.005.002-.211.059-.211.059l-.055.225c-.014.059-.017.109-.019.164-.006.001-.016.001-.023.002l-.217.067-.048.222c-.203.065-.386.173-.523.323l-.013-.037-.259-.013c-.192-.009-.392.042-.581.138-.017-.013-.178-.126-.178-.126l-.201.106c-.007.005-.012.011-.018.015-.034-.034-.064-.071-.107-.099l-.192-.125-.195.114c-.011.005-.023.017-.031.022a1.06 1.06 0 0 0-.379-.046c-.342.033-.648.226-.865.552l-.385.575.678.041c.004 0 .371.028.624.297.185.2 2.076 3.923 2.076 3.923l.318-.135c1.883-.781 3.732-1.162 5.651-1.162 1.928 0 3.781.382 5.67 1.172l.319.132 2.061-3.93a1.04 1.04 0 0 1 .621-.297l.674-.041-.381-.575zm-4.343-.227l-.017.096.365.021-.34.137a.59.59 0 0 0 .039.072l-.182-.053-.115-.035-.148-.039.397-.199zm-.63-.552l.149-.344.005.377.084-.012-.243.409-.066-.474.071.045zm-.657.381l.024-.096.287.345c-.008-.003-.152-.023-.152-.023l-.119-.015-.185-.026.06-.049-.257-.265.341.129zm-2.62-.425l.004.125.425-.067-.354.255.065.082-.245-.015-.125-.012-.171-.011-.048-.001.449-.356zm-.798-.417l.091-.434.103.434.106-.038-.203.575-.2-.575.104.038zm-1.032.475l.424.067.002-.125.451.356c-.019 0-.218.012-.218.012l-.126.012-.247.015.07-.082-.36-.244-.017-.013c.009.002.013 0 .021.002zm-2.236.271a1.55 1.55 0 0 0 .023.096l.342-.129-.258.265.06.049-.186.026-.12.015c.002 0-.106.014-.106.014s-.037.005-.046.009l.291-.345zm-.789-.251l.005-.377.148.344.073-.045-.069.474-.241-.409.084.012zm-.461.616l-.016-.096.399.199c-.002 0-.148.039-.148.039l-.115.035-.178.053.035-.072-.339-.137.363-.021zm-2.244.959l-.201.104c-.01-.011-.017-.022-.028-.038l.108-.3.049.073.243-.214-.134.3.061.019-.098.056zm13.897.109l-.199-.109-.1-.056.06-.019-.132-.3.243.214.047-.073.109.3c-.01.017-.017.027-.029.043z"/><use xlink:href="#f" class="M"/><use xlink:href="#f" class="B C E"/><path d="M244.699 352.815a16.76 16.76 0 0 0-6.428 1.289l.635 1.243c1.863-.775 3.755-1.193 5.793-1.193 2.048 0 3.947.422 5.814 1.201l.638-1.241a16.77 16.77 0 0 0-6.452-1.299z" class="J"/><path d="M253.35 351.234c-.322-.482-.806-.441-.978-.261a.58.58 0 0 0-.168-.15c-.141.092-.207.262-.25.452-.052-.151-.128-.279-.256-.349-.061.045-.116.099-.155.164a.88.88 0 0 0-.612-.237c-.066.2-.049.443.056.673a.47.47 0 0 0-.194.11c.05.256.325.411.579.549l-.485.735c-.223-.077-.387-.289-.387-.547a.59.59 0 0 1 .038-.212.32.32 0 0 0 .021-.106c0-.12-.071-.23-.183-.278-.147-.059-.314.012-.374.164-.102.255-.341.421-.607.421-.361 0-.655-.299-.657-.672l.059-.334.165.044c.32.093.713.247.971.064a.74.74 0 0 0-.066-.223c.232-.096.41-.264.499-.458-.143-.159-.366-.259-.616-.272.014-.076.013-.158-.005-.233-.138-.042-.285-.004-.428.066.1-.17.166-.344.125-.514a.51.51 0 0 0-.226-.014c-.005-.26-.091-.493-.237-.648-.195.084-.363.264-.464.497-.066-.038-.137-.066-.213-.076-.106.14-.11.328-.082.524-.103-.122-.224-.219-.369-.236a.61.61 0 0 0-.093.214c-.236-.09-.479-.087-.67-.001.007.216.108.442.288.625-.06.051-.111.109-.147.179.165.272.583.291.915.335.034.001.064.007.095.012l-.048.264c-.017.024-.029.051-.041.079-.095.268-.343.449-.619.449-.362 0-.657-.303-.657-.678a.29.29 0 0 0-.283-.297h-.035c-.129 0-.242.089-.276.219a.66.66 0 0 1-.633.497c-.364 0-.658-.304-.658-.679v-.16l.161.01c.353.027.789.099 1.017-.145a.63.63 0 0 0-.117-.218c.221-.146.375-.361.425-.584-.182-.131-.432-.186-.693-.146-.002-.084-.019-.166-.054-.241-.154-.014-.294.059-.431.164.071-.197.105-.394.027-.561a.61.61 0 0 0-.237.034c-.056-.265-.195-.491-.381-.618-.182.128-.32.353-.377.618a.62.62 0 0 0-.236-.034c-.078.167-.046.364.025.561-.136-.105-.279-.178-.431-.164-.034.075-.053.157-.054.241-.262-.04-.513.015-.694.146.051.222.202.437.427.584-.054.065-.095.138-.117.218.226.244.663.172 1.014.145l.141-.009v.159a.67.67 0 0 1-.658.679.66.66 0 0 1-.635-.497c-.033-.13-.146-.219-.276-.219h-.033a.29.29 0 0 0-.283.297c0 .374-.295.678-.657.678a.66.66 0 0 1-.619-.449c-.009-.029-.024-.055-.04-.079l-.05-.264c.03-.005.064-.012.095-.012.333-.045.751-.063.919-.335-.038-.07-.089-.128-.149-.179.179-.183.28-.409.287-.625-.19-.087-.435-.089-.669.001a.62.62 0 0 0-.093-.214c-.145.017-.263.114-.369.236.029-.197.023-.385-.081-.524a.61.61 0 0 0-.215.076c-.101-.233-.27-.413-.464-.497-.145.155-.233.388-.236.648a.51.51 0 0 0-.228.014c-.04.17.026.344.125.514-.142-.07-.288-.108-.429-.066a.63.63 0 0 0-.004.233c-.249.013-.472.113-.616.272.088.195.269.363.502.458-.037.071-.06.145-.067.223.256.183.646.029.968-.064l.165-.044.063.334c-.004.373-.298.672-.657.672-.269 0-.508-.165-.609-.421-.058-.152-.226-.222-.374-.164a.3.3 0 0 0-.178.278c0 .035.005.07.018.106a.59.59 0 0 1 .038.212c0 .258-.164.47-.388.547l-.486-.735c.256-.138.53-.294.582-.549-.057-.053-.123-.089-.194-.11.103-.23.121-.474.054-.673-.203-.01-.425.073-.61.237a.66.66 0 0 0-.154-.164c-.127.07-.204.198-.26.349-.038-.19-.107-.36-.247-.452-.066.038-.122.089-.168.15-.171-.18-.66-.221-.978.261a1.39 1.39 0 0 0 .876.417c.212.226.378.468.482.623a.32.32 0 0 0 .029.072l.635 1.021c.043.112.148.183.264.183.489 0 .903-.324 1.063-.773.181.106.386.176.605.176.459 0 .855-.264 1.066-.651.219.198.494.322.797.322.442 0 .827-.244 1.044-.607a1.2 1.2 0 0 0 .842.35 1.21 1.21 0 0 0 .947-.464 1.22 1.22 0 0 0 .951.464 1.2 1.2 0 0 0 .84-.35c.215.364.601.607 1.043.607a1.17 1.17 0 0 0 .795-.322c.212.387.611.651 1.069.651.219 0 .423-.07.605-.176.159.449.573.773 1.061.773.115 0 .22-.071.264-.183l.632-1.021c.017-.023.026-.046.034-.072.099-.154.269-.396.48-.623.369-.396.876-.417.876-.417z" fill="#ecd21c"/><use xlink:href="#g" class="L"/><use xlink:href="#g" class="B C E"/><use xlink:href="#h" class="L"/><use xlink:href="#h" class="B C E"/><use xlink:href="#i" class="L"/><g class="B C E"><use xlink:href="#i"/><path d="M240.135 354.258a.38.38 0 0 0-.381-.383c-.209 0-.382.172-.382.383s.173.386.382.386a.38.38 0 0 0 .381-.386z"/></g><path d="M244.733 353.108l-1.104.385 1.104.383 1.104-.383-1.104-.385z" class="L"/><path d="M244.733 353.108l-1.104.385 1.104.383 1.104-.383-1.104-.385z" class="B C E"/><path d="M251.033 354.388l-.273.715-.461-.593.735-.123z" class="L"/><path d="M251.033 354.388l-.273.715-.461-.593.735-.123z" class="B C E"/><path d="M238.367 354.388l.276.715.458-.593-.734-.123z" class="L"/><path d="M238.367 354.388l.276.715.458-.593-.734-.123z" class="B C E"/><use xlink:href="#j" class="M"/><use xlink:href="#j" class="B C E"/><use xlink:href="#k" class="M"/><use xlink:href="#k" class="B C E"/><use xlink:href="#l" class="D"/><use xlink:href="#l" class="B C E"/><use xlink:href="#m" class="D"/><use xlink:href="#m" class="B C E"/><use xlink:href="#n" class="D"/><use xlink:href="#n" class="B C E"/><path d="M240.367 350.697a.38.38 0 0 1 .381-.385.38.38 0 0 1 .379.385.38.38 0 1 1-.761 0z" class="D"/><path d="M240.367 350.697a.38.38 0 0 1 .381-.385.38.38 0 0 1 .379.385.38.38 0 1 1-.761 0z" class="B C E"/><use xlink:href="#o" class="D"/><use xlink:href="#o" class="B C E"/><use xlink:href="#p" class="J"/><use xlink:href="#p" class="B C E"/><use xlink:href="#q" fill="#0077c8"/><use xlink:href="#q" stroke-width=".662" class="B C F"/><use xlink:href="#r" class="K"/><use xlink:href="#r" class="B C F H"/><use xlink:href="#s" class="K"/><use xlink:href="#s" class="B C F H I"/><use xlink:href="#t" class="K"/><use xlink:href="#t" class="B C F H I"/><use xlink:href="#u" class="K"/><use xlink:href="#u" class="B C F H I"/><path d="M229.815 353.512a.86.86 0 0 1-.524.056c.089-.141.233-.268.414-.346l.11.29z"/><path d="M229.815 353.512a.86.86 0 0 1-.524.056c.089-.141.233-.268.414-.346l.11.29z" class="B C H"/><use xlink:href="#v" class="K"/><use xlink:href="#v" class="B C F H I"/><path d="M231.614 351.698c0 .702.536 1.273 1.196 1.273v-.82c-.001-.338-.111-.503-.428-.453h-.383z"/><path d="M231.614 351.728c0 .702.536 1.273 1.196 1.273v-.82c-.001-.338-.111-.503-.428-.453h-.383z" class="B C P"/><path d="M232.763 353.863s-.803.853-1.799 1.127"/><path d="M232.763 353.863s-.803.853-1.799 1.127" class="B C F H I"/><path d="M247.895 377.965l-2.455-2.719c-.43-.48-1.121-.48-1.553 0l-2.45 2.719z" class="D"/><path d="M247.895 377.965l-2.455-2.719c-.43-.48-1.121-.48-1.553 0l-2.45 2.719z" class="B C G"/><use xlink:href="#w" class="D"/><use xlink:href="#w" class="B C G"/><path d="M252.563 361.563l-2.453-2.717a1.01 1.01 0 0 0-1.55-.002l-2.453 2.719h6.456z" class="D"/><path d="M252.563 361.563l-2.453-2.717a1.01 1.01 0 0 0-1.55-.002l-2.453 2.719h6.456z" class="B C G"/><path d="M243.246 366.992l-2.452-2.717a1.02 1.02 0 0 0-1.552-.002l-2.452 2.719h6.455z" class="D"/><path d="M243.246 366.992l-2.452-2.717a1.02 1.02 0 0 0-1.552-.002l-2.452 2.719h6.455z" class="B C G"/><path d="M252.563 366.992l-2.453-2.717c-.432-.478-1.122-.478-1.55-.002l-2.453 2.719h6.456z" class="D"/><path d="M252.563 366.992l-2.453-2.717c-.432-.478-1.122-.478-1.55-.002l-2.453 2.719h6.456z" class="B C G"/><path d="M243.246 372.5l-2.452-2.722c-.431-.48-1.122-.48-1.552 0l-2.452 2.722z" class="D"/><path d="M243.246 372.5l-2.452-2.722c-.431-.48-1.122-.48-1.552 0l-2.452 2.722z" class="B C G"/><path d="M252.563 372.5l-2.453-2.722a1.01 1.01 0 0 0-1.55 0l-2.453 2.722z" class="D"/><path d="M252.563 372.5l-2.453-2.722a1.01 1.01 0 0 0-1.55 0l-2.453 2.722z" class="B C G"/><use xlink:href="#x" class="N"/><use xlink:href="#x" class="B C F G I"/><use xlink:href="#y" class="N"/><use xlink:href="#y" class="B C F G I"/><use xlink:href="#z" class="N"/><use xlink:href="#z" class="B C F G"/><path d="M237.829 339.624c-.449.09-.934-.081-1.089-.793-.136-.619.247-1.072.671-1.16.449-.093.933.072 1.088.784.137.621-.245 1.081-.67 1.169zm-.386-1.711c-.21.043-.353.22-.222.825s.367.684.577.641.352-.226.219-.831-.365-.678-.574-.635zm3.756 1.071c-.079.045-.265.13-.461.156-.606.078-1.098-.28-1.176-.85-.082-.616.33-1.046.95-1.127a1.53 1.53 0 0 1 .375-.001c.023.001.043.021.045.045l.061.439c.002.024-.009.038-.035.043l-.118.015c-.019.003-.038-.007-.048-.029l-.049-.149c-.03-.087-.112-.121-.267-.101-.393.051-.482.403-.435.743.054.401.294.735.768.673a.8.8 0 0 0 .284-.098c.027-.018.054.002.064.023l.053.158c.009.021.006.049-.011.06zm2.644-.185c0 .026-.011.052-.031.052l-1.449.08c-.025.002-.043-.012-.044-.04l-.005-.082c-.002-.023.009-.044.038-.051l.137-.034c.028-.006.051-.036.046-.098l-.075-1.304c-.003-.062-.029-.089-.058-.093l-.14-.018c-.029-.004-.042-.021-.044-.043l-.004-.085c-.002-.027.013-.043.042-.045l1.403-.076c.019-.001.04.019.041.044l.021.367c.002.025-.012.04-.037.041l-.101.007c-.021 0-.04-.012-.045-.035l-.032-.103c-.013-.048-.052-.072-.105-.069l-.45.024c-.019 0-.032.016-.032.037l.028.461c.001.019.016.032.036.031l.629-.033c.028-.004.043.011.043.035l.01.165c0 .026-.015.043-.039.043l-.629.032c-.019.003-.031.018-.031.036l.029.511c.004.079.046.096.099.093l.441-.024c.054-.002.095-.034.104-.084l.02-.106c.004-.024.019-.038.041-.038l.105-.006c.026-.002.042.01.042.037l-.003.367zm3.158.07l-.817-.021c-.026 0-.043-.015-.042-.043l.002-.084c.001-.02.013-.041.042-.047l.137-.021c.037-.006.058-.04.042-.095l-.064-.209c-.006-.016-.014-.033-.034-.033l-.682-.015c-.019 0-.029.015-.037.031l-.082.206c-.022.054.001.09.035.095l.139.029c.029.007.04.025.04.048l-.002.085c-.001.029-.02.041-.045.041l-.674-.015c-.028-.001-.044-.017-.044-.043l.004-.084c0-.023.01-.04.042-.047l.08-.024c.035-.009.053-.026.084-.095l.706-1.608c.004-.012.008-.023.023-.023l.405.007c.011.002.016.014.021.027l.57 1.639c.026.071.041.085.077.098l.081.028c.03.009.04.026.038.049l-.002.082c0 .029-.018.041-.042.041zm-.967-1.377a1.18 1.18 0 0 1-.059-.27h-.007c-.006.045-.037.146-.084.266l-.214.543c-.01.024.004.031.022.031l.49.012c.024 0 .027-.01.019-.029l-.169-.552zm4.123-.055l-.142.01c-.026.001-.054.026-.06.089l-.182 1.585c-.003.018-.013.02-.028.018l-.243-.026c-.028-.003-.031-.009-.044-.031l-.637-1.096-.121-.236-.005-.002-.107.953c-.008.061.012.092.04.098l.165.045c.027.009.036.029.034.051l-.012.083c-.002.027-.02.039-.047.038l-.745-.081c-.025-.002-.042-.018-.039-.046l.009-.082c.005-.023.016-.041.044-.044l.143-.01c.029-.004.055-.028.061-.09l.15-1.298c.007-.06-.011-.09-.04-.1l-.137-.041c-.028-.007-.038-.029-.034-.049l.007-.085c.003-.029.023-.04.051-.037l.6.063c.035.004.051.026.071.062l.469.853.134.269h.006l.092-.803c.006-.061-.012-.092-.042-.101l-.162-.043c-.029-.009-.038-.029-.037-.053l.011-.083c.004-.027.021-.04.048-.036l.746.079c.028.004.04.02.038.048l-.009.084c-.001.021-.017.04-.046.045zm1.716 2.078c-.451-.086-.829-.429-.685-1.143.125-.623.657-.894 1.083-.814.453.085.833.421.688 1.135-.125.624-.661.901-1.086.822zm.329-1.719c-.209-.041-.412.067-.535.674s.063.769.274.809.414-.075.536-.681-.064-.763-.275-.802z"/><use xlink:href="#AA" fill="#c09b5a"/><use xlink:href="#AA" class="B C F H"/><use xlink:href="#AB" fill="#c09b5a"/><g class="K"><use xlink:href="#AB" class="B F H I"/><use xlink:href="#AC"/></g><use xlink:href="#AC" class="B C F H I"/><use xlink:href="#AD" class="K"/><use xlink:href="#AD" class="B C F H I"/><path d="M259.561 353.509c.179.078.367.091.522.056-.09-.143-.232-.27-.416-.347l-.106.291z" fill="#c0a151"/><path d="M259.561 353.509c.179.078.367.091.522.056-.09-.143-.232-.27-.416-.347l-.106.291z" class="B C H"/><use xlink:href="#AE" class="K"/><use xlink:href="#AE" class="B C F H I"/><path d="M257.762 351.693c0 .703-.537 1.276-1.195 1.276v-.822c0-.338.11-.504.425-.454h.386z"/><g class="B C"><path d="M257.762 351.728c0 .703-.537 1.276-1.195 1.276v-.822c0-.338.11-.504.425-.454h.386z" class="P"/><path d="M256.611 353.858s.803.856 1.801 1.129" class="F H I"/></g></g><path d="M367.613 285.406c-.797-.106-1.643-.555-2.242-1.189-.68-.721-1.016-1.461-1.097-2.419-.152-1.792 1.06-3.499 2.864-4.034a4.63 4.63 0 0 1 2.035-.001c1.664.489 2.815 2.013 2.815 3.729 0 2.396-2.044 4.225-4.375 3.915zm42.97-9.536a4.01 4.01 0 0 1-2.12-1.341c-1.032-1.235-1.143-3.159-.26-4.515 1.82-2.794 5.857-2.266 6.928.907.202.6.187 1.763-.032 2.4-.654 1.903-2.614 3.009-4.516 2.549zm96.958 9.537c-1.471-.246-2.697-1.355-3.138-2.838-.153-.514-.153-1.59-.001-2.107a4 4 0 0 1 2.7-2.7c.447-.131 1.464-.151 1.955-.037.988.228 2.07 1.094 2.521 2.019.244.5.443 1.295.443 1.772 0 .496-.202 1.28-.469 1.822-.701 1.425-2.455 2.329-4.012 2.069zm-43.316-9.469a4.41 4.41 0 0 1-1.583-.683c-2.393-1.681-2.114-5.332.508-6.644 1.271-.636 2.629-.544 3.839.26 2.646 1.758 2.144 5.779-.856 6.87-.49.178-1.478.28-1.908.197z" class="D"/><path d="M642.135 638.227c3.608-8.636 5.378-10.278 16.412-15.229 11.649-5.227 17.348-10.815 19.976-19.587 2.454-8.19.896-16.658-4.748-25.799-6.604-10.698-7.084-13.6-3.562-21.56 3.604-8.149 16.518-21.46 25.973-26.773l6.542-3.676 5.458 6.377c6.494 7.587 18.131 30.454 16.999 33.403-.438 1.142-3.595 2.6-7.016 3.241-13.788 2.585-19.6 9.941-17.863 22.609.841 6.138.43 7.536-3.214 10.918-5.311 4.929-15.106 19.265-20.641 30.209-2.355 4.657-5.697 9.224-7.426 10.149s-9.047 1.682-16.263 1.682h-13.12z" class="K"/><g class="J"><path d="M342.573 265.109c-2.758-4.463-3.393-7.252-2.606-11.448.881-4.695.437-5.943-2.889-8.123-2.162-1.416-4.563-2.398-5.337-2.183-2.11.589-13.586-3.979-13.586-5.407 0-2.413 5.752-4.203 10.961-3.412 3.268.497 5.278 1.735 5.278 3.252 0 1.73.596 1.981 2.03.852 1.116-.879 4.222-2.125 6.902-2.768l5.684-1.442c.447-.15.919 2.65 1.05 6.222.175 4.786-.632 7.184-3.068 9.109-3.25 2.569-3.255 2.701-.294 7.714 1.657 2.805 3.969 5.1 5.138 5.1 2.612 0 5.364-6.782 4.524-11.146-.934-4.851 3.197-5.364 7.375-.916 4.933 5.251 11.96 5.234 15.414-.037 4.377-6.681 2.591-9.836-5.247-9.27-5.078.367-7.75-.389-10.823-3.061-4.171-3.627-4.194-8.047-.041-8.047 1.272 0 2.75-1.138 3.284-2.529s1.972-2.145 3.197-1.675 2.226-.107 2.226-1.281c0-3.381 4.937-12.378 6.792-12.378 2.503 0 9.387 6.97 9.419 9.536.022 1.734.537 1.807 2.319.327 1.306-1.084 2.685-1.264 3.208-.418.504.816 2.832 1.274 5.173 1.017 4.067-.446 4.209-.203 3.185 5.497-1.211 6.741-4.558 10.024-10.222 10.024-5.285 0-4.354 5.844 1.641 10.304l4.466 3.322 4.427-3.305c2.435-1.818 4.875-5.066 5.421-7.219 1.206-4.746 4.514-4.341 8.556 1.048 5.227 6.969 17.321 3.991 17.321-4.266 0-2.159-1.135-3.139-3.654-3.154-6.026-.037-10.961-1.85-10.961-4.028 0-1.126-1.096-2.957-2.436-4.069-3.74-3.104-2.942-6.496 1.528-6.496 2.18 0 4.455-.794 5.055-1.765s2.506-1.395 4.235-.943c2.275.595 3.025.073 2.714-1.888-.237-1.491 1.554-4.827 3.98-7.414l4.41-4.703 4.06 4.381c2.233 2.409 4.06 5.736 4.06 7.393 0 2.213.862 2.787 3.248 2.163 1.816-.475 3.248-.05 3.248.964 0 .997 1.827 1.813 4.06 1.813 4.621 0 5.368 3.331 1.595 7.105-1.356 1.356-2.269 3.384-2.03 4.508.467 2.192-.51 2.485-9.308 2.8-4.369.156-5.684.896-5.684 3.199 0 8.003 12.63 11.286 17.111 4.448 4.141-6.32 6.968-6.384 9.546-.216 3.333 7.978 8.306 10.212 13.738 6.172 5.574-4.146 6.659-10.152 1.833-10.152-5.079 0-9.758-2.959-8.766-5.544.474-1.236.082-2.729-.872-3.319s-1.735-2.39-1.735-4.001c0-2.159 1.065-2.812 4.053-2.484 2.229.245 4.445-.189 4.924-.964s1.944-.998 3.255-.494c1.486.57 2.384-.068 2.384-1.695 0-1.435 1.119-2.61 2.487-2.61s2.907-1.096 3.422-2.436c1.38-3.597 7.083-3.083 7.083.638 0 1.691 1.039 3.473 2.31 3.96 1.48.568 1.971 2.18 1.368 4.487-.597 2.283-.321 3.217.754 2.553.933-.576 2.599.04 3.702 1.37s2.97 2.418 4.148 2.418c4.022 0 4.301 3.484.596 7.428-2.783 2.963-5.4 3.94-10.552 3.94-8.023 0-10.273 3.227-6.386 9.16 3.325 5.075 9.575 4.944 15.845-.332 5.493-4.622 7.631-3.405 7.676 4.37.032 5.517 4.434 9.58 6.699 6.184 4.96-7.439 5.136-8.477 1.879-11.11-2.54-2.054-3.048-4.007-2.461-9.457.673-6.255 1.026-6.716 3.947-5.153 1.764.944 4.186 1.341 5.382.882s2.653.398 3.238 1.905c.957 2.464 1.256 2.413 2.976-.509 2.657-4.512 15.716-4.054 15.716.552 0 1.519-9.846 5.736-12.924 5.535-1.303-.085-3.762.591-5.465 1.502-2.46 1.317-2.907 2.824-2.174 7.338.702 4.325-.034 7.194-3.081 12.022-4.978 7.886-10.111 8.374-16.604 1.579-3.961-4.145-5.394-4.649-11.055-3.89-5.411.726-7.366.147-11.639-3.448-4.161-3.501-5.743-3.995-8.339-2.606-5.733 3.068-13.974 2.027-18.712-2.364-4.059-3.762-4.673-3.888-7.906-1.624-4.728 3.311-10.668 3.081-16.79-.653-4.424-2.697-5.377-2.794-7.42-.751-3.708 3.708-13.623 4.675-18.068 1.762-3.574-2.342-4.14-2.247-8.404 1.417-4.926 4.233-11.299 5.002-17.613 2.125-3.315-1.511-4.506-1.254-7.343 1.583-4.099 4.099-10.157 5.803-15.69 4.415-3.138-.788-4.951-.065-7.714 3.073-1.986 2.257-5.883 4.538-8.66 5.07-4.495.861-5.448.321-8.695-4.933zm45.792-31.142c1.712-3.758 1.493-4.61-1.892-7.351-3.368-2.727-4.24-2.827-7.249-.833-6.608 4.38-4.465 12.434 3.309 12.434 2.626 0 4.527-1.385 5.832-4.251zm109.718 2.302c2.697-2.697 2.436-7.075-.603-10.115-3.337-3.337-4.9-3.219-8.779.659-4.564 4.564-1.648 11.314 4.916 11.379 1.384.014 3.394-.852 4.466-1.924zm-55.816-5.475c3.039-3.039 3.3-7.417.603-10.115-6.307-6.307-16.217 2.804-10.237 9.412 3.546 3.918 6.223 4.113 9.633.703z"/><path d="M341.895 263.903c-3.039-5.096-3.656-7.529-2.471-9.743 1.779-3.325-.599-9.284-3.87-9.694-4.411-.553-5.466-.834-11.31-3.01-3.349-1.247-6.09-2.825-6.09-3.508 0-3.924 13.829-5.254 16.119-1.549.953 1.541 2.728 1.463 7.998-.352 3.725-1.283 7.059-1.868 7.408-1.299s.633 3.788.632 7.154c-.002 4.348-.896 6.597-3.088 7.771-3.922 2.099-3.874 3.344.328 8.687 4.275 5.434 7.954 3.206 7.954-4.817 0-7.299 2.633-8.402 7.934-3.322 5.724 5.484 12.233 5.563 15.753.19 3.9-5.953 1.973-8.944-5.761-8.944-4.387 0-7.873-1.164-10.606-3.541-5.11-4.443-5.112-5.888-.012-7.827 2.233-.849 4.06-2.292 4.06-3.208s1.096-1.664 2.436-1.664c1.353 0 2.436-1.443 2.436-3.248 0-1.786.59-3.248 1.31-3.248s2-1.852 2.842-4.116l1.531-4.116 5.25 3.71c2.887 2.04 5.262 4.503 5.278 5.473s3.072 1.883 6.793 2.029 7.091.591 7.49.99.07 3.505-.73 6.903c-1.164 4.941-2.485 6.515-6.599 7.859-6.837 2.233-7.513 3.12-5.396 7.075 4.63 8.651 13.185 7.469 17.305-2.39 1.276-3.054 2.651-5.553 3.054-5.553s2.977 2.192 5.718 4.872c5.668 5.541 11.249 6.24 15.175 1.902 4.844-5.352 3.448-8.398-3.848-8.398-5.407 0-6.792-.674-8.019-3.902-.816-2.146-2.259-4.381-3.208-4.968-3.266-2.018-1.813-5.746 2.24-5.746 2.18 0 4.416-.731 4.968-1.624s2.465-1.624 4.251-1.624c1.83 0 2.793-.736 2.207-1.685-.573-.927 1.196-3.973 3.93-6.769l4.971-5.085 4.094 4.417c2.251 2.429 4.094 5.476 4.094 6.769s1.462 2.352 3.248 2.352 3.248.731 3.248 1.624 1.827 1.624 4.06 1.624c4.739 0 4.895.851 1.602 8.733-2.307 5.521-2.905 5.882-9.743 5.882-5.999 0-7.286.529-7.286 2.996 0 3.962 5.034 8.371 9.557 8.371 1.997 0 5.74-2.323 8.354-5.186 5.203-5.696 5.518-5.622 9.432 2.216 3.207 6.422 10.108 8.1 15.022 3.652 4.205-3.805 4.063-8.801-.25-8.801-5.015 0-10.008-3.186-9.022-5.756.477-1.243.168-2.691-.686-3.219s-1.553-2.378-1.553-4.112c0-2.434 1.202-3.196 5.278-3.344 2.903-.106 6.191-.074 7.308.071s2.03-.865 2.03-2.243 1.119-2.507 2.487-2.507 2.907-1.096 3.422-2.436c1.173-3.056 7.083-3.222 7.083-.199 0 1.23 1.021 3.084 2.268 4.119s1.89 3.328 1.428 5.095c-.642 2.457-.221 2.975 1.792 2.202 1.471-.564 2.632-.199 2.632.828 0 1.011 1.827 2.532 4.06 3.381 4.966 1.888 4.988 2.889.186 8.34-3.192 3.623-4.771 4.165-10.282 3.528-7.485-.865-9.464 1.556-6.371 7.792 2.858 5.764 10.026 6.032 15.709.587 5.426-5.199 8.066-4.153 8.066 3.196 0 6.413 4.202 11.013 6.674 7.306 5.006-7.508 5.15-8.468 1.667-11.11-2.798-2.123-3.232-3.688-2.412-8.701.934-5.716 1.332-6.079 6.12-5.588 2.817.289 6.013 1.077 7.103 1.75 1.129.698 2.343.282 2.822-.965 1.386-3.612 15.376-2.044 15.376 1.724 0 1.519-9.846 5.736-12.924 5.535-1.303-.085-3.76.59-5.46 1.5-2.498 1.337-2.907 2.811-2.131 7.667.762 4.767.115 7.258-3.124 12.024-5.093 7.495-10.564 7.968-16.714 1.445-3.644-3.866-5.32-4.467-10.913-3.917-5.344.526-7.584-.171-11.71-3.644-4.132-3.477-5.712-3.967-8.307-2.578-5.129 2.745-13.083 1.992-18.317-1.735-4.036-2.874-5.514-3.145-8.853-1.624-5.462 2.489-9.607 2.294-15.447-.726-4.487-2.32-5.424-2.32-10.314 0-6.37 3.023-10.594 3.212-16.064.72-3.37-1.536-4.732-1.273-8.415 1.624-4.432 3.486-11.748 4.309-17.679 1.988-2.188-.856-4.952-.027-8.931 2.677-4.198 2.852-7.307 3.728-11.447 3.223-4.511-.55-6.785.262-11.018 3.933-7.705 6.682-12.273 6.107-17.207-2.166zm46.088-28.934c1.235-2.308 1.235-4.188 0-6.496-3.068-5.732-12.991-3.251-12.991 3.248s9.924 8.98 12.991 3.248zm110.1 1.299c2.85-2.85 2.384-6.898-1.164-10.108-2.483-2.247-3.797-2.451-6.496-1.006-5.852 3.132-3.485 13.063 3.113 13.063 1.429 0 3.475-.877 4.547-1.949zm-56.234-5.611c5.072-4.59 2.774-11.928-3.735-11.928-2.995 0-7.911 4.109-7.911 6.612 0 1.728 5.947 8.004 7.586 8.004.6 0 2.426-1.209 4.06-2.688z"/><use xlink:href="#AF"/><use xlink:href="#AF"/><use xlink:href="#AF"/><path d="M346.75 270.27c-1.366-.98-6.894-9.123-7.99-11.768-.599-1.445-.547-1.912.423-3.812.608-1.191 1.105-3.124 1.105-4.296 0-3.992-4.598-7.51-8.788-6.724-1.428.268-2.569-.048-5.489-1.518-2.027-1.021-3.834-1.708-4.016-1.527s-.329.069-.329-.249-.778-.745-1.729-.949-1.927-.488-2.168-.63c-.576-.341 1.657-2.712 3.416-3.627 1.507-.784 6.866-1.34 6.866-.712 0 .666 1.804.823 3.087.268 1.01-.436 1.429-.302 2.394.766.643.712 1.235 1.879 1.314 2.592.199 1.79.669 2.083 1.381.862 1.161-1.989 2.993-3.555 3.666-3.135 1.3.811 2.48.67 5.483-.658 1.676-.741 3.371-1.223 3.768-1.071.531.204.721 1.513.721 4.976 0 2.706.248 4.947.585 5.284 1.047 1.047-.058 2.762-3.413 5.304l-3.502 2.654c-.705.539 6.767 10.292 7.886 10.292.492 0 1.714-.845 2.716-1.879 1.773-1.829 1.828-2.019 2.1-7.203.3-5.734.61-6.325 3.321-6.34 1.14-.006 1.903.61 3.602 2.91 1.186 1.605 2.904 3.305 3.818 3.778 2.519 1.302 7.416 1.135 9.795-.335 3.069-1.897 3.947-3.827 3.95-8.682l.002-4.184-1.729.329c-.951.181-4.418.481-7.705.666-5.948.336-5.978.332-6.455-.934-.264-.699-.385-1.432-.27-1.629.246-.42-2.482-2.458-3.261-2.436-.636.018-1.843-2.179-1.854-3.375-.012-1.248 1.725-2.605 4.313-3.369 2.214-.654 2.731-1.136 3.347-3.117.252-.813.682-.899 2.965-.597 2.233.296 2.67.216 2.67-.492 0-.465-.307-1.132-.682-1.482s-.593-1.392-.485-2.316c.149-1.279.565-1.819 1.746-2.264 1.204-.455 1.552-.921 1.561-2.094.013-1.719 1.687-5.704 2.644-6.295.389-.241 1.604.545 3.115 2.014 1.362 1.325 3.434 2.85 4.605 3.389 1.909.879 2.144 1.199 2.28 3.107.247 3.466.438 3.678 2.19 2.431 1.835-1.306 2.876-1.39 3.777-.304.487.586 1.779.798 4.87.798 4.97 0 5.388.447 3.923 4.2-.526 1.348-.975 2.87-.998 3.382s-.241.931-.484.931-.287.827-.098 1.837c.312 1.664.181 1.936-1.394 2.894-.957.582-2.656 1.212-3.776 1.402s-2.166.552-2.323.807-.642.326-1.076.159-1.505-.008-2.377.354c-1.407.583-1.587.912-1.587 2.907 0 5.62 8.035 10.712 12.937 8.198 3.013-1.545 6.217-5.625 6.217-7.917 0-.614.365-1.823.812-2.687.659-1.274 1.155-1.57 2.631-1.57 1.54 0 2.171.422 4.11 2.745 5.11 6.123 7.452 7.417 11.466 6.337 3.942-1.061 7.629-5.365 6.691-7.809-.22-.572-.142-.786.207-.57.476.294 1.219-1.796 1.219-3.429 0-.256-2.837-.466-6.305-.466s-7.085-.272-8.039-.604c-1.596-.556-1.71-.748-1.44-2.411.256-1.579-.004-2.142-2.07-4.468-2.986-3.362-3.126-5.022-.518-6.111 1.015-.424 2.557-.771 3.427-.771s1.732-.243 1.916-.541.556-.404.827-.236.772-.307 1.113-1.055c.727-1.596.716-1.594 3.641-.562 1.244.439 2.38.798 2.523.798s.097-1.532-.103-3.404c-.386-3.609-.13-4.144 2.042-4.254.728-.037 1.744-.996 2.879-2.717 3.519-5.337 3.942-5.434 6.136-1.403 1.653 3.037 2.839 4.171 4.613 4.413 1.291.176 1.325.288 1.15 3.773-.099 1.975.021 3.583.266 3.573s1.045-.361 1.776-.779c1.545-.883 3.724-1.039 3.724-.266 0 1.058 2.161 2.66 3.591 2.663 2.343.005 5.485 1.057 5.829 1.952.379.987-1.001 3.539-3.147 5.824-1.328 1.414-1.507 1.936-1.21 3.523.327 1.743.238 1.902-1.372 2.464-.947.33-4.559.6-8.027.6h-6.305l.005 1.995c.007 2.795 2.183 7.173 4.323 8.699 1.449 1.034 2.45 1.277 5.249 1.277 4.24 0 6.037-1.106 8.941-5.502 1.844-2.792 2.153-3.022 4.253-3.175 2.169-.157 2.302-.079 3.147 1.862.486 1.115.842 2.195.792 2.401-.202.834 1.978 5.025 3.202 6.156 2.747 2.538 8.212 3.017 10.997.962 3.244-2.393 6.017-7.459 5.22-9.536-.179-.465-1.583-1.039-3.398-1.388-8.049-1.547-9.945-2.614-9.408-5.298.21-1.048-.162-2.576-1.175-4.835-2.01-4.48-1.635-5.01 3.689-5.213 2.237-.085 4.068-.376 4.068-.646s.44-.726.977-1.014c.749-.401 1.431-.199 2.928.866 1.073.764 2.066 1.274 2.206 1.134s.036-1.017-.231-1.949-.28-1.694-.028-1.694.534-.532.628-1.182c.132-.916.667-1.28 2.374-1.616 1.74-.343 2.491-.869 3.571-2.5 2.621-3.961 4.717-3.294 6.695 2.129.905 2.481 1.444 3.235 2.504 3.501 1.136.285 1.301.561 1.033 1.732a111.27 111.27 0 0 0-.66 3.183l-.342 1.789 2.206-.373c1.868-.316 2.253-.223 2.512.605.639 2.045 1.19 2.574 2.681 2.574.846 0 1.658.146 1.804.325s1.056.73 2.023 1.225c2.75 1.409 2.666 2.157-.629 5.612-2.046 2.145-2.99 3.567-2.99 4.505 0 1.257-.186 1.369-2.261 1.366-1.244-.002-4.531-.345-7.306-.761-5.63-.845-6.102-.695-6.628 2.106-.962 5.13 3.117 10.552 8.214 10.917 4.157.298 4.707.064 8.816-3.746 3.972-3.683 6.019-4.586 6.956-3.069.223.361.553 2.906.734 5.657.236 3.58.56 5.171 1.142 5.596.447.327.789.808.76 1.069s.614.973 1.43 1.581c1.141.852 1.692.977 2.394.541 1.045-.649 5.013-6.122 4.68-6.455-.121-.121.238-.68.799-1.241 1.566-1.566 1.263-2.304-1.936-4.72-3.637-2.746-4.527-4.37-3.199-5.838.733-.81.909-1.857.826-4.924-.058-2.142-.08-4.178-.048-4.523.063-.697 1.551-.359 5.065 1.15 1.395.599 2.699.778 3.955.542 1.705-.32 2.027-.169 3.583 1.684l1.709 2.036.592-2.197c.781-2.902 1.821-3.754 3.709-3.041.794.3 1.912.362 2.485.138 3.047-1.192 7.467-.182 10.219 2.333 1.609 1.471 1.507 1.973-.399 1.973-.878 0-1.596.254-1.596.563s-.231.421-.514.246c-.682-.422-4.707 1.626-6.503 3.308-1.071 1.003-1.773 1.256-2.793 1.006l-2.697-.663c-1.994-.491-4.271.701-5.826 3.05-2.007 3.033-2.175 4.654-.812 7.823l1.173 2.728-1.626 2.882c-.894 1.585-1.48 3.028-1.301 3.207s.086.326-.207.326-1.456 1.342-2.586 2.981-2.598 3.338-3.263 3.774c-3.472 2.275-11.368-2.434-15.366-9.166-.497-.836-.756-.859-2.527-.218-1.086.393-1.974.857-1.974 1.033s-1.856.3-4.123.277c-5.363-.055-9.43-1.841-13.008-5.713l-2.511-2.717-3.347 1.814c-3.06 1.659-3.734 1.814-7.87 1.815-5.423.001-8.115-1.139-11.998-5.08l-2.5-2.538-3.699 1.932c-2.948 1.54-4.437 1.974-7.334 2.138-5.11.289-6.989-.439-14.107-5.465-.506-.357-1.326.055-2.851 1.433-5.759 5.203-12.69 5.799-19.392 1.669l-3.088-1.903-2.896 2.739c-1.593 1.507-4.241 3.355-5.886 4.108-4.09 1.872-8.622 1.589-13.527-.847l-3.439-1.707-3.095 3.004c-4.124 4.003-6.955 5.245-12.21 5.36-3.082.067-4.615-.156-6.031-.878-2.151-1.096-3.207-.901-3.71.686-.582 1.835-4.562 5.749-7.21 7.09-3.494 1.77-6.263 2.121-7.835.993zm39.154-32.985c5.79-3.789 3.058-13.001-3.856-13.001-1.693 0-2.415.406-4.593 2.584-2.721 2.721-3.094 3.983-2.017 6.825.678 1.789 2.483 3.831 3.955 4.473 1.38.602 4.991.113 6.51-.881zm112.09-.735c.854-.854 1.6-1.987 1.658-2.52a8.66 8.66 0 0 1 .542-2c.269-.637.217-1.105-.136-1.223-.314-.105-.449-.658-.3-1.229.189-.722-.378-1.689-1.856-3.167-1.815-1.815-2.46-2.128-4.389-2.128-7.547 0-10.022 9.295-3.555 13.356 2.392 1.502 5.923 1.023 8.036-1.09zm-57.485-4.487c2.657-1.11 3.913-3.046 3.983-6.137.068-3.025-1.204-4.99-4.315-6.665-3.853-2.075-8.505.654-9.218 5.406-.245 1.636-.175 2.558.205 2.685.318.106.464.493.323.86-.328.856 1.721 3.473 3.182 4.064 1.695.685 3.883.605 5.84-.212z"/><path d="M346.75 270.27c-1.366-.98-6.894-9.123-7.99-11.768-.599-1.445-.547-1.912.423-3.812.608-1.191 1.105-3.124 1.105-4.296 0-3.993-4.598-7.51-8.79-6.724-1.396.262-2.516-.021-4.956-1.253-1.734-.875-3.301-1.443-3.482-1.261s-.33.069-.33-.249-.898-.856-1.995-1.193l-2.74-.853c-.929-.299 1.077-2.592 3.262-3.729 1.565-.814 6.793-1.34 6.793-.683 0 .674 1.796.836 3.087.278 1.01-.436 1.429-.302 2.394.766.643.712 1.235 1.879 1.314 2.592.199 1.79.669 2.083 1.381.862 1.275-2.185 3.053-3.647 3.677-3.023.898.898 2.07.735 5.45-.76 1.688-.747 3.394-1.233 3.791-1.081.531.204.721 1.513.721 4.976 0 2.706.248 4.947.585 5.284 1.047 1.047-.058 2.762-3.413 5.304l-3.502 2.654c-.705.539 6.767 10.292 7.886 10.292.492 0 1.714-.845 2.716-1.879 1.773-1.829 1.828-2.019 2.1-7.203.3-5.734.61-6.325 3.321-6.34 1.14-.006 1.903.61 3.602 2.91 2.678 3.625 4.463 4.582 8.588 4.602 2.571.012 3.617-.256 5.278-1.356 2.812-1.861 3.541-3.552 3.658-8.49l.099-4.188-1.759.333c-.967.183-4.448.485-7.734.671-5.948.336-5.978.332-6.455-.934-.264-.699-.385-1.432-.27-1.629s-.511-.872-1.393-1.499-1.602-.988-1.602-.801c0 .928-1.65-1.469-1.912-2.776-.376-1.879.903-3.159 4.104-4.104 2.214-.654 2.731-1.136 3.347-3.117.252-.813.682-.899 2.965-.597 2.233.296 2.67.216 2.67-.492 0-.465-.307-1.132-.682-1.482s-.593-1.392-.485-2.316c.149-1.279.565-1.819 1.746-2.264 1.204-.455 1.552-.921 1.561-2.094.013-1.719 1.687-5.704 2.644-6.295.389-.241 1.604.545 3.115 2.014 1.362 1.325 3.434 2.85 4.605 3.389 1.909.879 2.144 1.199 2.28 3.107.247 3.466.438 3.678 2.19 2.431 1.835-1.306 2.876-1.39 3.777-.304.487.586 1.779.798 4.87.798 4.97 0 5.388.447 3.923 4.2-.526 1.348-.975 2.87-.998 3.382s-.241.931-.484.931-.287.827-.098 1.837c.31 1.655.178 1.938-1.339 2.861-.926.563-3.165 1.315-4.976 1.67-5.776 1.134-6.219 1.419-6.219 3.992 0 5.62 8.035 10.712 12.937 8.198 3.013-1.545 6.217-5.625 6.217-7.917 0-.614.365-1.823.812-2.687.659-1.274 1.155-1.57 2.631-1.57 1.54 0 2.171.422 4.11 2.745 5.122 6.137 7.449 7.418 11.497 6.328 3.535-.952 5.77-3.282 7.016-7.317 1.626-5.263 1.958-4.949-5.235-4.949-3.468 0-7.085-.272-8.039-.604-1.596-.556-1.71-.748-1.44-2.411.256-1.579-.004-2.142-2.07-4.468-3.901-4.393-2.994-6.162 3.65-7.12 1.996-.288 2.684-.651 3.145-1.662.687-1.508 1.208-1.576 3.795-.495 1.051.439 2.065.798 2.255.798s.181-1.532-.019-3.404c-.386-3.609-.13-4.144 2.042-4.254.728-.037 1.744-.996 2.879-2.717 3.519-5.337 3.942-5.434 6.136-1.403 1.653 3.037 2.839 4.171 4.613 4.413 1.291.176 1.325.288 1.15 3.773-.099 1.975.021 3.583.266 3.573s1.045-.361 1.776-.779c2.008-1.148 3.472-.976 4.139.486.633 1.389 1.222 1.644 4.968 2.151 4.94.669 5.344 2.486 1.519 6.831-1.907 2.166-2.127 2.682-1.828 4.277.316 1.684.217 1.857-1.382 2.414-.947.33-4.559.6-8.027.6h-6.305l.005 1.995c.007 2.795 2.183 7.173 4.323 8.699 1.449 1.034 2.45 1.277 5.249 1.277 4.24 0 6.037-1.106 8.941-5.502 1.844-2.792 2.153-3.022 4.253-3.175 2.169-.157 2.302-.079 3.147 1.862.486 1.115.842 2.195.792 2.401-.202.834 1.978 5.025 3.202 6.156 2.747 2.538 8.212 3.017 10.997.962 3.244-2.393 6.017-7.459 5.22-9.536-.179-.465-1.583-1.039-3.398-1.388-8.049-1.547-9.945-2.614-9.408-5.298.21-1.048-.162-2.576-1.175-4.835-2.01-4.48-1.635-5.01 3.689-5.213 2.237-.085 4.068-.376 4.068-.646s.44-.726.977-1.014c.749-.401 1.431-.199 2.928.866 1.073.764 2.066 1.274 2.206 1.134s.036-1.017-.231-1.949-.28-1.694-.028-1.694.534-.536.628-1.192c.101-.708.602-1.256 1.234-1.351 2.782-.416 3.4-.775 4.691-2.727 2.641-3.991 4.731-3.337 6.714 2.1.905 2.481 1.444 3.235 2.504 3.501 1.136.285 1.301.561 1.033 1.732a111.27 111.27 0 0 0-.66 3.183l-.342 1.789 2.206-.373c1.868-.316 2.253-.223 2.512.605.639 2.045 1.19 2.574 2.681 2.574.846 0 1.658.146 1.804.325s1.056.73 2.023 1.225c2.749 1.409 2.691 2.21-.389 5.329-2.517 2.549-3.067 3.496-3.19 5.492-.054.885-3.272.851-9.608-.1-5.63-.845-6.102-.695-6.628 2.106-.962 5.13 3.117 10.552 8.214 10.917 4.157.298 4.707.064 8.816-3.746 3.972-3.683 6.019-4.586 6.956-3.069.223.361.55 2.851.726 5.534.276 4.199.521 5.14 1.754 6.757 1.811 2.375 3.297 2.888 4.695 1.622 1.229-1.112 5.783-8.275 5.783-9.096 0-.306-1.33-1.561-2.956-2.788-3.637-2.746-4.527-4.37-3.199-5.838.733-.81.909-1.857.826-4.924-.058-2.142-.08-4.178-.048-4.523.063-.697 1.551-.359 5.065 1.15 1.395.599 2.699.778 3.955.542 1.705-.32 2.027-.169 3.583 1.684l1.709 2.036.592-2.197c.781-2.902 1.821-3.754 3.709-3.041.794.3 1.912.362 2.485.138 3.137-1.227 8.211.049 10.57 2.657 1.223 1.352 1.14 1.46-1.433 1.865-2.472.389-6.68 2.472-8.046 3.984-1.156 1.279-1.942 1.372-4.322.512-3.375-1.22-7.014 1.123-8.274 5.329-.603 2.011-.549 2.529.533 5.138l1.203 2.902-1.883 3.367c-2.903 5.192-6.557 9.882-7.976 10.238-3.332.836-10.01-2.998-13.043-7.489-1.943-2.876-2.016-2.894-6.459-1.584-5.691 1.678-12.123-.325-16.6-5.169l-2.511-2.717-3.347 1.814c-3.061 1.659-3.734 1.814-7.87 1.815-5.423.001-8.115-1.139-11.998-5.08l-2.5-2.538-3.699 1.932c-2.948 1.54-4.437 1.974-7.334 2.138-5.11.289-6.989-.439-14.107-5.465-.506-.357-1.326.055-2.851 1.433-5.759 5.203-12.69 5.799-19.392 1.669l-3.088-1.903-2.896 2.739c-1.593 1.507-4.241 3.355-5.886 4.108-4.09 1.872-8.622 1.589-13.527-.847l-3.439-1.707-3.095 3.004c-4.124 4.003-6.955 5.245-12.21 5.36-3.082.067-4.615-.156-6.031-.878-2.151-1.096-3.207-.901-3.71.686-.582 1.835-4.562 5.749-7.21 7.09-3.494 1.77-6.263 2.121-7.835.993zm39.154-32.985c5.79-3.789 3.058-13.001-3.856-13.001-1.693 0-2.415.406-4.593 2.584-2.721 2.721-3.094 3.983-2.017 6.825.678 1.789 2.483 3.831 3.955 4.473 1.38.602 4.991.113 6.51-.881zm112.09-.735c.854-.854 1.6-1.987 1.658-2.52a8.66 8.66 0 0 1 .542-2c.269-.637.217-1.105-.136-1.223-.314-.105-.449-.658-.3-1.229.189-.722-.378-1.689-1.856-3.167-1.815-1.815-2.46-2.128-4.389-2.128-7.547 0-10.022 9.295-3.555 13.356 2.392 1.502 5.923 1.023 8.036-1.09zm-57.529-4.478c2.794-1.183 3.787-2.705 3.926-6.017.112-2.686-.028-3.097-1.577-4.633-3.574-3.543-6.904-3.824-9.896-.833-1.696 1.696-2.911 6.377-1.754 6.763.318.106.464.493.323.86-.328.856 1.721 3.473 3.182 4.064 1.69.683 3.884.606 5.796-.203z"/></g><path d="M393.888 430.007l-6.578-7.387c.102-.102 11.73 12.387 13.088 14.056.332.408.404.675.183.672-.038 0-3.049-3.304-6.693-7.342zm-47.92-120.42h102.421c28.144.017 5.081.031-51.251.031s-79.358-.014-51.17-.031zm-.131-.606h102.482c28.183.017 5.124.031-51.241.031s-79.423-.014-51.241-.031z" fill="#04a"/><path d="M579.587 378.147l.113-30.767.083-19.207.017 30.767-.113 30.767c-.104 0-.124-2.366-.1-11.561z" fill="#00a"/></g><defs ><path id="B" d="M237.634 350.517c-.591-.332-1.348-1.427-1.348-1.997 0-1.003 1.177-1.813 2.628-1.813l.587-.251.268-.878s-3.268-.417-4.164 1.157-.433 2.598-.059 3.424 1.224 1.246 1.224 1.246l.864-.887z"/><path id="C" d="M241.041 347.92c-.192-.204-.303-.452-.303-.717 0-.719.826-1.305 1.846-1.305.374 0 1.104.079 1.392.213l.09-1.502s-2.757-.318-3.818.904-.793 2.424-.703 2.701a9.05 9.05 0 0 0 .27.695l1.52-.463-.295-.525z"/><path id="D" d="M251.752 350.517c.591-.332 1.35-1.427 1.35-1.997 0-1.003-1.177-1.813-2.63-1.813l-.586-.251-.269-.878s3.267-.417 4.163 1.157.433 2.598.061 3.424-1.226 1.246-1.226 1.246l-.864-.887z"/><path id="E" d="M248.345 347.92c.19-.204.304-.452.304-.717 0-.719-.829-1.305-1.846-1.305-.375 0-1.102.079-1.392.213l-.089-1.502s2.755-.318 3.817.904.792 2.424.701 2.701-.268.695-.268.695l-1.52-.463.294-.525z"/><path id="F" d="M237.338 350.528c1.714-1.776 4.379-2.919 7.372-2.919s5.656 1.143 7.37 2.919l-2.06 5.636h-10.732l-1.95-5.636z"/><path id="G" d="M244.814 345.75c-.262-.057-.52.117-.574.389a.5.5 0 0 0 .377.593c.263.057.52-.118.574-.389a.5.5 0 0 0-.377-.593z"/><path id="H" d="M244.837 346.671c-.332-.074-.657.148-.725.495s.146.677.477.749.66-.149.729-.494-.146-.681-.482-.75z"/><path id="I" d="M244.871 347.865c-.421-.091-.832.189-.919.624s.184.856.605.948.831-.192.917-.624-.18-.859-.603-.948z"/><path id="J" d="M236.313 350.159c0-.432-.338-.786-.759-.786s-.761.353-.761.786.342.784.761.784.759-.351.759-.784z"/><path id="K" d="M240.239 346.807c0-.435-.341-.785-.759-.785s-.762.35-.762.785.341.785.762.785.759-.352.759-.785z"/><path id="L" d="M240.458 348.295c0-.433-.343-.786-.764-.786s-.76.353-.76.786.341.784.76.784.764-.349.764-.784z"/><path id="M" d="M235.726 349.126c.15-.404-.046-.856-.438-1.012s-.833.048-.981.453a.79.79 0 0 0 .438 1.011.75.75 0 0 0 .982-.452z"/><path id="N" d="M235.783 347.951c.286-.318.269-.813-.037-1.11s-.787-.28-1.074.037-.27.815.037 1.111a.74.74 0 0 0 1.075-.038z"/><path id="O" d="M236.423 346.987c.382-.182.544-.649.368-1.041a.75.75 0 0 0-1.011-.38c-.379.184-.544.649-.367 1.043s.632.563 1.01.378z"/><path id="P" d="M237.443 346.402c.42-.024.742-.396.714-.829s-.381-.765-.8-.74-.74.397-.716.831.383.764.801.738z"/><path id="Q" d="M238.556 346.107c.397.138.828-.085.962-.497s-.084-.856-.482-.993-.829.084-.963.496.084.857.483.994z"/><path id="R" d="M239.776 346.119c.324.275.803.226 1.07-.107s.22-.833-.104-1.106-.803-.226-1.07.107-.221.829.104 1.105z"/><path id="S" d="M242.249 344.743c0-.436-.34-.785-.762-.785s-.759.349-.759.785.341.784.759.784.762-.35.762-.784z"/><path id="T" d="M243.697 344.586c0-.434-.343-.786-.762-.786s-.759.352-.759.786.338.784.759.784.762-.351.762-.784z"/><path id="U" d="M253.104 350.159c0-.432.341-.786.761-.786s.758.353.758.786-.338.784-.758.784-.761-.351-.761-.784z"/><path id="V" d="M249.181 346.807c0-.435.341-.785.76-.785s.761.35.761.785-.339.785-.761.785-.76-.352-.76-.785z"/><path id="W" d="M248.964 348.295c0-.433.342-.786.763-.786s.759.353.759.786-.342.784-.759.784-.763-.349-.763-.784z"/><path id="X" d="M253.693 349.126c-.149-.404.045-.856.439-1.012s.831.048.982.453a.79.79 0 0 1-.441 1.011c-.391.157-.831-.046-.98-.452z"/><path id="Y" d="M253.638 347.951c-.288-.318-.27-.813.035-1.11s.788-.28 1.075.037.27.815-.038 1.111a.74.74 0 0 1-1.073-.038z"/><path id="Z" d="M252.997 346.987c-.381-.182-.546-.649-.37-1.041a.75.75 0 0 1 1.011-.38c.381.184.546.649.37 1.043s-.631.563-1.011.378z"/><path id="a" d="M251.977 346.402c-.421-.024-.742-.396-.718-.829s.386-.765.804-.74.741.397.715.831-.383.764-.801.738z"/><path id="b" d="M250.864 346.107c-.401.138-.829-.085-.962-.497s.082-.856.482-.993a.75.75 0 0 1 .958.496c.136.414-.079.857-.477.994z"/><path id="c" d="M249.643 346.119c-.323.275-.801.226-1.069-.107s-.218-.833.104-1.106.801-.226 1.069.107.222.829-.104 1.105z"/><path id="d" d="M247.171 344.743c0-.436.34-.785.759-.785s.762.349.762.785-.342.784-.762.784-.759-.35-.759-.784z"/><path id="e" d="M245.724 344.586c0-.434.341-.786.76-.786s.761.352.761.786-.342.784-.761.784-.76-.351-.76-.784z"/><path id="f" d="M244.397 345.835c-.573-.176-.899-.804-.731-1.397s.779-.932 1.353-.754.905.801.733 1.396-.779.932-1.356.755z"/><path id="g" d="M247.014 353.587c0-.209-.173-.383-.383-.383s-.38.173-.38.383.17.383.38.383.383-.172.383-.383z"/><path id="h" d="M250.092 354.258c0-.211-.17-.383-.382-.383s-.381.172-.381.383.173.386.381.386.382-.171.382-.386z"/><path id="i" d="M243.215 353.587c0-.209-.169-.383-.379-.383s-.381.173-.381.383.17.383.381.383a.38.38 0 0 0 .379-.383z"/><path id="j" d="M242.042 353.72c.042.206-.09.41-.296.453l-.746.156c-.207.042-.408-.091-.451-.299s.09-.41.297-.453l.745-.156c.206-.043.408.091.452.299z"/><path id="k" d="M247.424 353.72a.39.39 0 0 0 .297.453l.746.156c.204.042.406-.091.449-.299a.38.38 0 0 0-.294-.453l-.747-.156c-.204-.043-.406.091-.45.299z"/><path id="l" d="M245.081 350.285c0-.213-.17-.384-.381-.384a.38.38 0 0 0-.38.384c0 .214.17.385.38.385s.381-.171.381-.385z"/><path id="m" d="M249.033 350.697c0-.214-.171-.385-.382-.385s-.381.171-.381.385.172.384.381.384.382-.172.382-.384z"/><path id="n" d="M252.502 352.069a.38.38 0 0 0-.378-.383c-.209 0-.38.173-.38.383s.171.385.38.385a.38.38 0 0 0 .378-.385z"/><path id="o" d="M236.896 352.069c0-.21.172-.383.382-.383s.38.173.38.383-.171.385-.38.385-.382-.172-.382-.385z"/><path id="p" d="M245.091 344.511V343.1h.478v-.787h-.478v-.493h-.762v.493h-.477v.787h.477v1.412h-.671v.509h2.101v-.509z"/><path id="q" d="M234.192 355.885h20.966v18.387c0 6.071-10.481 6.071-10.481 6.071s-10.485 0-10.485-6.071v-18.387z"/><path id="r" d="M225.765 371.335c1.085.424 2.001 1.223 2.607 2.25l.012.022c.121.216.19.469.19.737 0 .391-.148.748-.386 1.006l-.012.011a1.81 1.81 0 0 0-.458 1.213c0 .843.556 1.544 1.296 1.713l.01.004c.88.193 1.542 1.021 1.542 2.016h-1.931c-.421 0-.853-.236-1.088-.754-.354-.835-1.24-2.294-2.018-2.682.023-.142.289-.535.289-.684 0-1.183-.762-1.145-1.8-1.403l-.339-.062s.201-.808.701-1.708 1.385-1.679 1.385-1.679z"/><path id="s" d="M230.229 359.234l2.742-4.246.011-.009c.259-.39.686-.641 1.167-.641.79 0 1.433.682 1.433 1.526h-1.433l-1.14 2.158-.735 3.21-.411.612-.034.078"/><path id="t" d="M219.575 374.014c-.024.205-.036.414-.036.623a5.87 5.87 0 0 0 .055.797l.004.027a2.35 2.35 0 0 1 .021.31c0 .979-.583 1.809-1.399 2.128l-.006.01-.022.443a4.34 4.34 0 0 0 .75 2.45l.024.049c.375.566.643 1.208.776 1.904.158.709.712.995 1.141.995h2.253c0-1.137-.864-2.056-1.931-2.056-.436-.46-.694-1.087-.694-1.775 0-1.058.61-1.967 1.475-2.346l.01-.011c1.031-.458 1.755-1.539 1.755-2.801l.009-.03c.9-2.714 2.798-4.922 5.226-6.13 1.805-.836 3.053-2.749 3.053-4.96 0-1.704-.742-3.22-1.899-4.208l.015-2.463c.245-.223.449-.383 1.055-.86.804-.629 1.353-1.071 1.531-2.02.108-.593.423-2.592-.371-2.469s-1.942.616-1.942.616c-.459-.196-.581-.447-1.106-.447-.349 0-.982.184-1.306.271-1.744.477-3.032 2.165-3.032 4.171l.031 4.762c0 3.438-1.63 6.467-4.113 8.264l-.005.009c-1.048.74-1.824 1.88-2.133 3.215l-.006.035c-.146.609-.663.954-1.125.954a1.74 1.74 0 0 1-1.276-.561c-.702-.746-.702-1.964 0-2.714a.68.68 0 0 0 0-.915.58.58 0 0 0-.859 0c-1.174 1.253-1.174 3.294 0 4.545 1.116 1.186 2.89 1.248 4.076.186a5.62 5.62 0 0 1 .444-1.672 5.62 5.62 0 0 0-.444 1.672"/><path id="u" d="M226.245 354.8s-.301.9.111 1.799c.283.621.865.982 1.473.988a1.85 1.85 0 0 0 .173-1.843l-.681-1.465"/><path id="v" d="M229.8 362.874c1.185.67 2.508-.004 3.159-1.121.227-.387.107-1.033.236-1.417l.011-.024c.139-.416.516-.719.956-.719l.002 3.181-1.033 1.098c-.746.793-1.564 1.925-2.423 1.66l-3.683-.961"/><path id="w" d="M243.246 361.563l-2.452-2.717c-.431-.481-1.122-.481-1.552-.002l-2.452 2.719h6.455z"/><path id="x" d="M255.323 338.857c.817 1.659 3.773 2.13 4.762 2.107a3.64 3.64 0 0 0 1.381-.283 3.24 3.24 0 0 1-.169.447c-.418.925-1.221 1.636-2.205 1.923.319 1.002 1.043 1.353 1.819 1.665-.862.269-6.477.735-10.089-3.024"/><path id="y" d="M233.936 338.857c-.815 1.659-3.771 2.13-4.763 2.107a3.65 3.65 0 0 1-1.38-.283c.046.155.101.303.168.447a3.51 3.51 0 0 0 2.205 1.923c-.319 1.002-1.04 1.353-1.817 1.665.86.269 6.476.735 10.088-3.024"/><path id="z" d="M251.389 340.741l-.58.996 1.377.34c.701.169 1.037.038 1.523-.509.578-.659 1.207-1.631 1.207-1.631l.007-.017a2.31 2.31 0 0 0 .381-1.277 2.32 2.32 0 0 0-1.859-2.275l-.022-.007a48.69 48.69 0 0 0-8.729-.787h-.128c-2.979 0-5.897.271-8.727.787l-.024.007a2.32 2.32 0 0 0-1.86 2.275c0 .474.142.912.383 1.277l.007.017s.627.972 1.205 1.631c.486.547.825.678 1.525.509l1.377-.34-.58-.996-.079-.173-1.116.167c2.559-.463 5.195-.704 7.889-.704h.128a44.36 44.36 0 0 1 7.891.704l-1.096-.159-.1.164z"/><path id="AA" d="M263.611 371.331c-1.086.424-2.001 1.224-2.609 2.252l-.012.022c-.121.215-.189.466-.189.737 0 .391.145.748.385 1.004l.01.013c.284.314.46.742.46 1.213 0 .84-.555 1.543-1.299 1.713l-.005.002c-.88.192-1.543 1.021-1.543 2.016h1.931c.422 0 .855-.233 1.089-.753.352-.836 1.24-2.293 2.016-2.683-.023-.142-.29-.536-.29-.685 0-1.183.765-1.144 1.801-1.401l.341-.065s-.2-.806-.703-1.706-1.382-1.68-1.382-1.68z"/><path id="AB" d="M259.145 359.233l-2.743-4.247-.011-.011c-.259-.388-.685-.641-1.165-.641-.792 0-1.434.685-1.434 1.526h1.434l1.14 2.158.734 3.21.411.612.034.079"/><path id="AC" d="M269.8 374.011a5.83 5.83 0 0 1 .034.623c0 .271-.018.536-.055.795l-.002.029a2.28 2.28 0 0 0-.019.309c0 .978.58 1.812 1.398 2.128l.006.01.021.445a4.33 4.33 0 0 1-.748 2.448l-.024.049a5.14 5.14 0 0 0-.774 1.906c-.161.709-.712.993-1.14.993h-2.257c0-1.134.865-2.057 1.932-2.057l.018-.001c.417-.458.678-1.083.678-1.772 0-1.057-.612-1.967-1.478-2.347l-.009-.009c-1.032-.457-1.757-1.539-1.757-2.8l-.007-.034c-.901-2.711-2.798-4.921-5.227-6.128l-.017-.005c-1.79-.831-3.036-2.745-3.036-4.954 0-1.703.742-3.222 1.9-4.207l-.016-2.465c-.244-.223-.449-.384-1.057-.86-.8-.629-1.35-1.072-1.527-2.018-.109-.595-.425-2.595.367-2.471s1.941.616 1.941.616c.464-.195.585-.447 1.109-.447.348 0 .983.181 1.304.27 1.745.48 3.034 2.162 3.034 4.169l-.031 4.763c0 3.438 1.629 6.469 4.111 8.267l.009.01c1.044.739 1.821 1.879 2.131 3.212l.005.034c.146.61.663.958 1.124.958a1.75 1.75 0 0 0 1.277-.562 2.02 2.02 0 0 0 0-2.715c-.239-.253-.239-.663 0-.914s.621-.255.855 0c1.18 1.251 1.18 3.291 0 4.544-1.112 1.185-2.888 1.248-4.072.186-.063-.589-.215-1.155-.444-1.671a5.6 5.6 0 0 1 .444 1.671"/><path id="AD" d="M263.128 354.798s.303.901-.108 1.797c-.285.621-.866.981-1.475.989-.369-.514-.459-1.224-.176-1.843l.682-1.463"/><path id="AE" d="M259.575 362.87c-1.185.67-2.508-.001-3.159-1.121-.23-.387-.107-1.035-.234-1.416l-.011-.022c-.14-.42-.516-.72-.958-.72l-.004 3.179 1.033 1.1c.746.792 1.564 1.923 2.424 1.658l3.684-.961"/><path id="AF" d="M342.344 264.739c-2.454-3.971-3.559-8.04-3.313-12.204.361-6.12-.651-7.426-6.541-8.444-4.608-.796-14.336-4.964-14.336-6.142 0-4.216 13.688-5.115 16.354-1.074.51.773 3.915.35 7.567-.938s7.071-1.911 7.599-1.384.959 3.719.959 7.092c0 4.407-.968 6.811-3.442 8.544l-3.442 2.411 3.6 5.056c2.876 4.039 4.058 4.676 5.878 3.166 1.253-1.04 2.277-4.315 2.277-7.279 0-7.304 2.365-8.236 8.277-3.261 6 5.049 10.103 5.283 14.557.828 5.382-5.382 3.505-8.754-5.185-9.318-5.515-.358-8.51-1.571-11.353-4.597-3.825-4.072-3.831-4.131-.613-6.36 1.786-1.237 4.13-3.005 5.209-3.929s2.723-1.679 3.654-1.679 1.692-1.122 1.692-2.493c0-2 2.349-6.721 5.924-11.906.744-1.079 10.134 7.052 10.226 8.855.049.97 3.134 1.883 6.855 2.029s7.091.591 7.49.99.07 3.505-.73 6.903c-1.164 4.941-2.485 6.515-6.599 7.859-7.191 2.349-7.745 3.323-4.61 8.108 2.175 3.32 3.847 4.1 7.933 3.704 4.152-.402 5.767-1.708 8.153-6.591 1.637-3.349 3.509-6.09 4.162-6.09s3.287 2.192 5.854 4.872c5.397 5.634 10.457 6.219 14.56 1.684 4.188-4.628 2.102-8.18-4.806-8.18-4.603 0-6.076-.792-7.258-3.902-.816-2.146-2.259-4.381-3.208-4.968-2.804-1.733-1.966-5.746 1.2-5.746 4.135 0 11.663-3.73 11.678-5.786.007-.949 2.224-3.844 4.926-6.434l4.914-4.708 4.018 4.333c2.21 2.383 4.018 5.461 4.018 6.84 0 1.399 1.393 2.507 3.152 2.507 1.734 0 3.604.731 4.156 1.624s2.422 1.624 4.156 1.624c3.796 0 3.883 1.1.694 8.733-2.307 5.521-2.905 5.882-9.743 5.882-8.238 0-9.54 2.617-4.038 8.119 4.514 4.514 8.355 4.062 13.803-1.624 2.567-2.679 5.299-4.872 6.07-4.872s2.435 2.469 3.695 5.487c3.578 8.564 11.885 10.283 16.399 3.394 3.071-4.687 2.498-5.67-4.672-8.012-4.114-1.344-5.435-2.917-6.599-7.859-.8-3.398-1.129-6.504-.73-6.903s3.769-.844 7.49-.99c4.43-.174 6.765-1.014 6.765-2.435 0-1.193 1.119-2.17 2.487-2.17s2.907-1.096 3.422-2.436c1.173-3.056 7.083-3.222 7.083-.199 0 1.23 1.053 3.111 2.339 4.178s1.939 2.984 1.45 4.259-.049 2.317.977 2.317 2.749.756 3.828 1.679 3.374 2.656 5.101 3.85c3.068 2.121 3.05 2.283-.812 7.15-3.34 4.209-4.956 4.933-10.447 4.676-5.503-.257-6.571.224-6.988 3.148-.584 4.09 3.557 8.728 7.791 8.728 1.654 0 5.241-1.879 7.97-4.176 5.912-4.975 8.277-4.043 8.277 3.261 0 6.996 3.439 10.118 6.814 6.187 4.859-5.658 5.113-7.271 1.568-9.96-2.841-2.155-3.275-3.702-2.453-8.732.934-5.716 1.332-6.079 6.12-5.588 2.817.289 6.013 1.077 7.103 1.75 1.121.693 2.338.298 2.801-.908 1.524-3.967 15.396-2.414 15.396 1.723 0 1.796-7.949 5.37-13.525 6.08-7.04.897-8.022 2.108-6.982 8.614.753 4.711.095 7.227-3.131 11.975-5.046 7.425-10.434 7.922-16.787 1.546-3.602-3.615-5.666-4.375-10.836-3.989-4.772.356-7.779-.551-11.892-3.589-4.153-3.067-6.221-3.683-8.419-2.507-4.987 2.669-13.796 1.763-18.45-1.897-3.683-2.897-5.045-3.16-8.415-1.624-5.741 2.616-10.448 2.264-16.137-1.206-4.841-2.952-5.053-2.952-8.705.006-4.219 3.417-11.044 3.911-16.933 1.228-3.309-1.508-4.773-1.202-8.916 1.861-4.176 3.088-6.255 3.511-13.199 2.689-6.562-.777-9.375-.308-13.799 2.302-3.602 2.125-7.695 3.099-11.635 2.769-4.864-.408-6.967.382-10.526 3.956-6.343 6.368-11.68 5.878-16.234-1.491zm43.365-27.764c2.737-1.828 3.618-5.755 1.997-8.907-1.997-3.882-8.932-3.628-11.091.406-3.307 6.179 3.31 12.364 9.094 8.501zm113.336-2.411c2.446-3.902-.538-8.377-6.023-9.034-3.407-.408-4.453.318-5.295 3.675-1.992 7.937 7.025 12.207 11.318 5.359zm-54.822-6.881c1.262-3.288-2.348-8.952-5.706-8.952-4.835 0-8.896 5.622-6.838 9.467.954 1.783 2.657 3.572 3.783 3.975 2.628.942 7.668-1.641 8.761-4.49z"/></defs></svg>