<svg xmlns="http://www.w3.org/2000/svg" width="1200" height="600" xmlns:v="https://vecta.io/nano"><path d="M0 0v600h1200V0z" fill="#3c8bdc" fill-rule="evenodd"/><path d="M0 0h1200v300H0z" fill="#0bac24"/><path d="M0 0v600l1200-300z" fill="#eb0433"/><path d="M215.422 135.392c-2.172.032-4.9.386-8.039 1.146-10.403 2.521-20.202 12.258-26.629 23.82-1.974 2.434-7.387 4.614-9.902 4.906-.24-1.523.618-5.82 2.25-9.072 1.383-2.756 7.187-8.414 13.772-13.232l6.51-4.764-8.467.938c-16.464 1.819-30.486 11.185-37.211 24.949-1.745 3.572-3.581 10.439-4.377 16.275-.734 5.384-1.542 8.975-2.4 10.908-.459 1.035-.75 1.221-.75 1.221-.082-.002-.878-.803-1.793-3.574-1.414-4.285-.881-9.042 2.383-18.363 1.199-3.425 2.405-7.512.252-7.512-.939 0-4.08 1.884-7.229 3.988-11.474 7.668-18.427 22.357-19.369 40.434-.453 8.695-.169 12.406 1.398 16.152 1.767 4.223 2.107 8.455 1.518 9.566-3.796-1.624-8.189-20.297-6.215-30.281l1.787-9.047-5.729 5.488c-5.211 4.992-10.089 13.255-13.014 21.949-2.177 6.472-2.537 9.803-2.096 19.232.471 10.053 1.079 12.568 5.043 20.811 2.454 5.102 6.569 11.582 9.17 14.404 4.094 4.442 4.98 7.808 3.793 8.816-2.656-1.024-11.449-10.212-14.104-15.34-1.446-2.792-3.5-8.187-4.559-11.986l-2.799-10.051-3.162 8.805c-1.347 3.753-2.366 11.001-2.74 19.229-.506 11.13-.207 14.614 1.895 21.533 4.323 14.234 15.543 28.474 28.906 36.723 5.358 3.308 7.445 5.567 7.592 7.338-.585-.042-1.526-.293-3.279-.912-9.993-3.526-20.039-11.167-28.535-21.775l-5.645-7.045.766 9.522c2.558 31.794 26.172 59.865 56.393 66.988 4.187.987 8.917 1.82 10.658 1.83 2.239.014 6.288 3.117 7.012 4.748-.18.029-.278.062-.555.082-4.338.314-16.479-1.12-25.881-3.328-5.311-1.247-13.561-4.076-18.338-6.283-3.922-1.812-7.213-3.042-8.285-2.977-.181.011-.628.107-.893.422-.468.557-.244 1.054-.08 1.334 12.125 20.768 34.107 38.026 59.111 46.459 15.666 5.284 26.72 6.806 52.58 7.287l26.705.453c-.645.626-1.713 1.391-3.412 2.361-2.472 1.411-7.779 5.046-11.818 8.082l-8.121 6.104 3.113 4.209c1.337 1.808 2.302 3.744 4.848 2.588 1.922-.873 4.987-3.612 11.584-9.213 3.789-3.217 6.971-5.392 7.475-5.629.195 1.517-.667 5.527-2.494 9.189-.876 1.755-1.6 3.476-1.592 4.141.002.151.012.552.416.867.481.375 3.82.782 7.506 1.197l7.953.896-.721-6.838c-.316-3.004-.12-6.92.391-8.684l.547-1.889 9.602 9.098.289.277h.025c5.18 4.894 9.857 9.061 11.314 9.959.166.103.479.285.828.285 1.028 0 2.846-1.551 4.303-3.102l3.314-3.531-6.861-6.17c-3.394-3.051-9.658-7.632-13.918-10.184-2.767-1.657-4.446-2.701-5.316-3.395.069-.019.133-.039.211-.059 1.288-.321 14.512-.856 29.045-1.074 23.592-.354 27.959-.741 39.275-3.469 15.596-3.759 28.468-8.952 39.275-15.871 9.699-6.21 20.404-16.709 24.346-23.945l4.305-7.898-8.582 4.279c-7.16 3.571-13.714 5.141-25.293 5.994l-15.01 1.287c-4.343.458-4.459.151-4.459-.178 0-1.529 4.507-3.896 11.834-4.832 8.395-1.073 20.104-5.408 27.586-10.209 17.102-10.974 29.807-34.072 29.867-54.299l.027-9.098-3.867 5.58c-5.239 7.565-23.294 20.678-27.963 20.678-1.211 0-1.247-.29-.639-1.314.581-.978 1.752-2.215 3.566-3.566 13.506-10.058 24.738-24.665 29.547-38.481 3.159-9.076 3.089-29.661-.092-40.469l-3.207-10.895-2.965 9.982c-2.767 9.32-12.631 25.884-16.789 29.063-.433.331-.632.396-.687.398-1.116.055-.304-4.537 4.084-10.32 9.371-12.349 12.741-23.338 11.523-37.74-.873-10.325-5.769-22.888-12.539-32.238l-6.147-8.486-.9 14.891c-.695 11.487-2.472 19.887-4.277 22.457-.378.538-.602.588-.602.588s-.087-.017-.248-.178c-1.035-1.035-1.106-4.853.586-15.568 3.237-20.505-4.387-40.198-20.514-52.971-2.365-1.873-4.64-3.428-5.516-3.562-.183-.028-.66-.052-1.018.326-.266.282-.312.724-.314.859-.022 1.056.799 4.966 1.922 9.334 2.087 8.117 2.364 15.345 1.225 17.647-.216.436-.402.469-.402.469s.104.057-.037-.086c-.799-.807-1.92-3.795-3.418-9.719-1.479-5.847-3.989-13.335-5.602-16.66-5.649-11.646-18.145-22.099-30.609-25.606-5.048-1.42-7.748-2.183-8.707-2.086-.343.035-1.039.272-1.137 1.016-.135 1.025 1.348 2.061 3.064 3.434 9.075 7.255 16.349 17.301 15.422 19.717-.22.573-.748.902-3.254.428-1.486-.281-2.554-.65-3.502-1.117a6.29 6.29 0 0 0-.514-1.279c-6.373-12.007-17.167-21.251-27.842-23.838-12.556-3.043-18.556.426-8.58 4.963 5.134 2.334 8.43 5.828 8.43 8.938 0 1.714-1.136 1.209-4.482-2-9.899-9.481-32.041-12.254-26.027-3.26 3.256 4.873 8.704 7.388 19.635 9.059 10.445 1.598 12.892 2.677 7.545 3.326-7.608.922-10.948.668-14.254-1.09-6.46-3.435-6.793-1.334-.779 4.891 7.871 8.146 15.313 11.232 25.295 10.486 8.3-.621 13.789-1.907 17.18-3.543 1.906.07 3.571.703 6.988 2.268 4.058 1.858 5.982 3.554 5.982 4.023 0 .503-.383.866-10.4.445-6.289-.264-12.283-.93-13.254-1.365-.829-.372-1.727-.803-2.41-.43-1.289.704-.302 2.344.723 4.326 2.898 5.605 10.38 12.25 17.684 15.848 5.886 2.899 8.197 3.295 19.492 3.342 11.56.048 12.439.284 14.875 2.572 1.559 1.465 2.656 3.409 2.656 4.213 0 .869.281 1.061-5.637.447-5.885-.61-15.191-2.846-19.84-4.756-.495-.203-1.289-.354-1.822.299-.367.449-.332 1.097-.25 1.488.625 2.978 7.438 12.673 12.471 17.311 6.707 6.181 21.102 13.839 28.342 15.014 3.021.49 3.738 1.071 5.631 5.35 1.278 2.889 2.25 5.798 2.25 6.484 0 .678-1.639.875-2.154.041-.64-1.036-3.831-1.879-6.918-2.342-6.157-.923-12.087-3.687-17.334-8.102l-3.719-3.127-1.594 1.146 2.348 5.951c4.92 12.483 6.187 14.965 11.301 22.131 5.431 7.61 14.99 16.948 21.072 20.541 2.484 1.467 2.869 2.148 2.854 5.854-.009 2.296-.255 4.017-.662 5.176-.509 1.447-.961 1.581-1.646 1.092l-8.557-6.041c-7.695-5.418-10.85-8.648-13.447-13.574l-1.859-3.525-1.908.467-.037 7.635c-.078 15.592 4.829 34.758 11.777 45.891 7.207 11.548 7.185 11.842 4.064 18.898-1.153 2.608-2.139 4.212-2.992 5.039-.396.383-.639.434-.639.434-.046-.009-.42-.318-.711-1.82-.295-1.525-2.133-4.859-4.063-7.664-5.241-7.617-7.982-14.76-8.902-23.121l-1.266-11.492-4.027 8.934c-5.131 11.387-6.718 22.6-6.873 47.672l-.145 23.076-4.188 4.814c-3.178 3.654-5.811 6.025-7.686 7.16-1.041.631-1.514.63-1.555.631-.017-.086-.033-.206-.018-.416.047-.619.297-1.541.852-2.855.991-2.351 2.06-10.154 2.543-17.611.525-8.108 1.822-16.367 3.256-20.85 1.204-3.763 2.087-7.218 2.043-8.234-.007-.158-.004-.514-.34-.85-.613-.613-1.43-.28-1.842-.062-3.174 1.679-14.565 13.724-21.014 22.275-4.177 5.538-10.763 16.267-14.639 23.842-7.665 14.981-10.897 19.347-16.514 22.818-2.963 1.831-21 9.555-23.295 10.154-.235-2.601-.61-9.513-.943-17.777-.68-16.866-1.476-24.109-3.705-33.545-.308-1.305-.217-1.58 1.699-2.061 1.984-.498 7.085-4.661 11.494-9.133l7.555-7.66 5.119 1.59c12.314 3.823 28.862-.114 36.82-8.854 3.169-3.48 7.135-8.996 7.795-10.713.08-.208.195-.668.107-.996-.267-1.006-1.235-.875-1.652-.676l-7.617 3.676c-6.319 3.055-10.789 4.197-12.455 3.947-.04-.006-.035-.013-.066-.019.289-.721 1.647-2.132 4.883-4.27 6.05-3.997 12.651-12.214 14.75-18.436.713-2.114 1.814-5.154-.053-5.154-.528 0-2.669.872-4.99 1.842-2.207.922-6.283 1.684-9.076 1.684-7.033 0-11.783 1.751-15.17 5.861-1.421 1.724-2.825 2.198-3.533 2.064-.456-.086-1-.578-.549-2.262.414-1.545.742-4.615.752-6.838.011-2.722.793-4.225 4.061-7.219l4.377-4.006-1.018-1.701-3.871 1.348c-8.064 2.811-15.119 8.696-18.688 15.65-3.038 5.921-3.379 7.791-2.924 15.789.332 5.838-.005 9.502-.934 11.32-1.934 3.788-9.559 10.611-15.256 13.518-4.393 2.241-3.828 1.946-4.537.621-4.225-7.895-10.596-38.148-10.412-49.58.177-10.996.767-11.772 6.666-13.277 3.243-.827 8.231-3.179 11.068-5.217 5.389-3.87 12.249-4.533 17.049-1.789 7.877 4.503 23.432.514 31.119-7.668 1.938-2.063 3.477-3.617 2.76-4.707-.785-1.192-2.772-.083-5.227 1.197-3.704 1.932-9.774 2.147-14.721.422-2.104-.733-2.87-1.459-2.924-1.654 0 0 1.002-.931 4.605-1.412 6.85-.914 14.533-5.706 19.672-12.172 1.981-2.492 3.818-4.803 3.818-5.447 0-1.257-.764-1.022-1.008-1.037-.645-.041-2.502.538-4.641 1.273-3.362 1.156-4.865 1.135-9.91-.301-6.076-1.728-6.961-1.689-11.746.805-2.281 1.189-3.618 1.873-4.393 2.133a4.09 4.09 0 0 1-.022-.5c0-1.223 1.2-2.918 7.086-8.988l4.23-4.357h-5.814c-5.543 0-13.848 4.558-16.713 9.193-1.362 2.204-3.825 7.648-5.51 12.133-4.057 10.802-7.558 15.024-14.854 18.25-3.473 1.536-6.772 2.713-7.061 2.713-.323 0-.097-2.466 5.578-12.994 6.622-12.284 11.867-24.572 14.195-33.309 1.788-6.708 3.189-8.545 10.674-13.607 5.25-3.551 5.727-3.672 12.404-3.049 11.379 1.063 17.578-.253 23.469-5.295 2.033-1.74 3.537-3.306 4.369-4.488 1.775-2.523.524-4.244-2.621-2.932-3.648 1.522-11.637 2.701-13.047 2.16-1.112-.427-1.122-.883-1.047-1.082.161-.429.941-1.143 2.602-1.508 5.604-1.231 16.125-11.805 16.125-16.602 0-1.231-.682-2.265-2.148-1.76-.511.176-1.224.612-2.055 1.193-1.423.997-4.627 1.645-8.768 1.645-6.509 0-7.519.372-10.807 4.492-1.211 1.517-2.233 2.511-2.975 3.145-.135-.637-.266-1.405-.266-2.465 0-2.758.877-4.578 4.238-8.111l6.145-6.457h-5.529c-4.783 0-11.305 4.768-13.934 9.951-1.224 2.415-2.707 8.289-3.359 13.109-.983 7.27-1.668 8.903-4.729 12.061-2.98 3.074-4.629 3.743-4.787 3.645 0 0-.284-.655.125-2.6 3.654-17.357 3.385-24.939-1.412-38.336-2.735-7.637-2.7-7.869-1.062-11.303 1.096-2.298 1.982-6.516 1.975-9.346-.013-5.49-4.34-16.224-7.805-19.09-1.112-.92-2.704-1.563-3.268.561-.308 1.162-.34 3.456-.34 7.563 0 8.102-.198 7.939-1.336 7.939-.991 0-1.378-.449-1.379-.484-.037-1.283-3.201-5.19-6.742-8.947l-7.531-7.992-1.811 4.756c-1.783 4.69-.521 9.078 3.822 14.537 1.462 1.838 2.394 3.228 2.848 4.207.497 1.073.377.97-.068.969-1.508-.005-8.568-4.25-10.441-6.527-.552-.671-1.118-1.371-1.791-1.408-1.756-.096-1.196 1.983-.807 3.787 1.898 8.8 11.314 15.881 21.898 16.746 9.11.745 9.832 1.735 9.699 22.479-.09 14.089-.531 17.416-4.221 31.811-2.283 8.907-4.493 16.335-4.574 16.416-.925.925-5.869-1.449-12.822-7.953l-7.291-6.82.104-6.799c.065-4.282-.69-9.37-1.83-12.076-1.654-3.925-11.133-15.124-14.463-17.385-.386-.262-.962-.549-1.387-.549-2.223 0-.816 3.393.395 5.863 1.15 2.347 2.428 6.44 2.846 9.107.616 3.935.376 3.824-.051 3.824-.475 0-1.295-.634-1.619-1.654-1.253-3.949-7.348-6.568-13.764-6.568-4.199 0-5.302-.471-8.191-3.502l-6.146-6.451 1.566 7.074c1.731 7.808 5.929 14.308 11.809 18.139 4.041 2.632 4.997 4.095 4.926 4.221-.254.448-2.734.935-8.172.705l-11.199-.473 4.578 4.971c5.679 6.162 11.569 7.829 26.438 7.857l12.998.025 7.305 6.412c9.823 8.624 10.142 9.886 6.855 15.092-12.379 19.609-18.17 42.536-14.773 59.053 1.159 5.636 1.141 8.106.865 8.283-.156.1-2.07-.976-5.998-4.824-8.442-8.273-9.219-9.976-9.92-21.729-.884-14.819-5.833-22.694-17.738-27.924-2.459-1.08-4.205-1.776-5.188-2.059-1.569-.452-3.229.303-1.648 1.943.326.339.949.823 1.773 1.4 1.206.845 2.694 3.071 3.291 5.043 2.151 7.099 2.088 10.664 1.611 10.924-.077.042-1.28-.405-3.482-3.15-3.36-4.188-4.478-4.678-10.299-4.678-7.626 0-12.903-1.584-16.113-4.6l-4.455-4.184v4.939c0 7.512 11.465 20.626 21.453 25.065 2.687 1.194 4.393 2.773 4.393 2.877 0 0-.008-.007-.24.107-1.664.826-6.772.561-10.494-1.094-5.075-2.257-10.711-4.043-12.443-3.877-.247.024-.677.122-.963.408-.44.44-.407 1.024-.334 1.371.48 2.29 5.978 8.769 9.336 11.135 11.746 8.276 24.101 10.335 34.041 5.387l4.438-2.209 5.244 5.498c2.524 2.646 4.647 5.121 5.357 6.184.016.025.031.05.045.072l.035.055c.01.016.019.033.027.047s.015.024.022.035.009.017.014.025.009.014.012.019l-.031-.232c0 1.112 2.902 3.577 5.979 5.924 6.191 4.722 8.024 7.592 8.078 11.775.026 2.031 1.555 7.115 3.346 11.525 3.229 7.952 3.154 7.566 2.857 33.899l-.676 25.604c-3.538-1.078-16.601-8.036-21.807-11.857-6.263-4.597-13.152-13.258-20.508-25.897-12.93-22.215-21.787-33.06-34.121-41.611-1.811-1.256-3.372-2.112-4.361-2.439-1.25-.414-2.841-.005-2.273 1.666.17.499.67 1.205 1.332 1.934 1.442 1.586 3.606 11.82 4.656 23.68.559 6.312 1.824 13.144 2.984 15.389 1.669 3.228 1.288 4.406.176 4.406-.1 0-3.252-2.347-6.625-5.537l-5.836-5.52-.17-16.367c-.217-20.933-4.86-46.678-10.295-56.488-.356-.642-.681-1.204-.963-1.543-.955-1.147-2.09-.682-2.512.646-.264.831-.48 2.37-.799 4.777-.885 6.684-4.207 15.14-7.115 18.354-1.221 1.349-2.75 4.979-3.545 8.109-.803 3.162-1.942 4.705-2.037 4.77-.027-.019-.056-.04-.09-.066-.934-.741-2.577-3.033-4.035-5.867l-3.092-6.01 4.088-6.395c9.142-14.292 13.684-30.914 13.572-49.57l-.068-10.916-1.947-.379-1.988 4.834c-2.606 6.328-4.119 7.949-10.391 11.127-3.098 1.57-7.083 4.54-8.832 6.619-1.846 2.193-3.097 3.008-3.604 3-.519-.008-1.299-1.703-1.299-6.916 0-3.542.299-4.118 5.426-7.707 2.151-1.506 3.772-3.115 4.678-4.021 13.8-13.8 17.006-19.892 22.111-31.897 1.878-4.537 3.134-7.949 3.699-9.939.338-1.19.699-2.506-.172-3.066-1.296-.833-2.491 1.267-3.918 3.787-2.939 5.192-6.307 7.094-14.779 7.969-3.565.368-7.382 1.395-8.398 2.619-1.318 1.588-3.947 1.444-3.947.408 0-.828 1.017-3.992 2.346-7.08 2.241-5.209 2.056-5.083 7.897-5.686 9.141-.943 16.459-4.564 24.234-11.908 5.94-5.611 13.64-16.422 13.674-19.791.005-.452-.271-1.014-.838-1.193-.97-.307-2.298.678-3.49 1.77-3.407 3.118-5.649 3.651-14.18 2.697-6.396-.715-6.91-1.135-7.092-2.406-.124-.864.805-3.109 2.299-4.721l2.416-2.604 4.912 2.172c4.537 2.007 7.423 2.425 13.039 1.916 9.853-.893 21.58-6.738 26.318-13.279 1.904-2.629 3.645-5.355 3.645-6.246 0-1.76-3.184-1.617-5.773-1.27-2.436.327-7.889.241-12.09-.209-4.748-.508-6.657-1.337-6.746-1.686-.051-.2 1.155-1.491 5.268-3.396 3.82-1.77 5.314-3.026 10.471-2.992 3.387 1.134 8.393 2.754 14.623 3.322 9.982.746 17.424-2.341 25.295-10.486 6.013-6.225 5.68-8.324-.779-4.889-3.306 1.758-6.646 2.01-14.254 1.088-5.347-.649-2.9-1.728 7.545-3.326 10.931-1.671 16.378-4.183 19.635-9.057 6.013-8.995-16.128-6.223-26.027 3.258-3.346 3.209-4.482 3.716-4.482 2.002 0-3.109 3.297-6.606 8.432-8.939 7.482-3.403 5.976-6.205-.541-6.109z" fill="#fbc724"/></svg>