<?xml version="1.0" encoding="UTF-8" standalone="no"?>
<svg xmlns="http://www.w3.org/2000/svg" xmlns:xlink="http://www.w3.org/1999/xlink" width="600" height="400">
  <rect
     style="fill:#21428e"
     width="600"
     height="400"/>
  <path
     style="fill:#fff"
     d="M 260,160 L 260,0 L 300,0 L 340,0 L 340,160 L 600,160 L 600,200 L 600,240 L 340,240 L 340,400 L 300,400 L 260,400 L 260,240 L 0,240 L 0,200 L 0,160 L 260,160 z"/>
  <g id="s"
     transform="matrix(1.7931505,-0.1568803,0.1568803,1.7931505,-234.82077,-164.23077)">
    <path
       d="M 170.10435,180.44941 C 170.96343,181.52202 171.92741,182.39317 172.84175,183.03912 C 175.54489,184.9488 178.79738,186.26969 182.3086,187.12581 C 186.64459,188.18302 191.72457,188.71896 195.5922,188.69889 C 200.88614,188.67141 205.77308,187.69109 208.38855,186.3566 C 211.68671,184.67378 213.39981,182.50565 213.39981,178.97532 C 213.39981,175.34153 210.54051,172.86992 207.22801,171.61992 C 204.03804,170.41616 199.82392,170.10582 195.9414,170.1079 C 192.96608,170.10949 188.30031,170.62047 185.27849,171.28468 C 182.74974,171.8405 178.6091,173.08834 175.66498,174.49806 C 175.06145,174.78704 174.43768,175.0955 173.78889,175.41152 C 173.44149,174.35877 173.44209,173.1612 173.93014,171.79854 C 175.57366,167.20975 182.80316,166.46229 188.74074,166.12436 C 192.06865,165.93496 197.05561,165.39813 199.73322,164.45142 C 204.57081,162.74103 206.33741,159.78735 206.43975,157.21818 C 206.55916,154.22056 204.75116,151.24398 200.85871,149.08425 C 198.66433,147.86669 195.77176,146.94084 193.44224,145.99313 C 191.14265,145.0576 189.39175,143.78625 189.40276,142.33362 C 189.41166,141.15982 190.28238,140.19499 191.22062,139.43503 C 193.11828,137.89794 195.65161,136.35942 197.37657,135.11104 C 200.94011,132.53205 201.74457,130.30702 201.81407,127.86104 C 201.89391,125.0958 200.82882,122.91291 198.7854,121.3596 C 196.57347,119.6782 193.76621,118.63966 191.08192,118.78068 C 188.8879,118.8979 186.76975,119.31527 184.84979,119.93247 C 182.88098,120.56537 180.97562,120.89087 181.09085,121.59319 C 181.14588,121.92855 181.66146,123.16984 182.19216,123.46084 C 182.71462,123.74732 183.53844,123.6252 184.07299,123.57532 C 184.46422,123.53882 185.26625,123.4079 185.79768,123.31987 C 186.28491,123.23916 187.08496,123.09735 187.28727,123.51282 C 187.30083,123.54067 184.20312,124.84529 181.07938,125.75353 C 179.38134,126.24724 177.41064,126.58777 175.66369,126.69927 C 174.65812,126.76345 173.71329,126.8267 172.44628,126.69616 C 173.27306,127.17645 174.19271,127.28093 174.41659,127.67036 C 174.45771,128.08393 173.69042,128.5474 172.91941,129.22547 C 174.23647,128.70683 175.2696,128.31953 176.01551,128.0498 C 177.63523,127.46409 179.63818,127.05898 181.45825,126.49289 C 185.03174,125.38145 187.20325,123.92937 187.19372,123.94504 C 186.98691,124.28516 186.5288,124.72905 186.0075,125.19364 C 185.5234,125.62508 184.91346,126.10661 184.50552,126.43865 C 184.13574,126.73963 184.33381,126.93443 184.50476,127.24959 C 184.81136,127.81482 185.36552,127.57428 186.25157,127.09765 C 187.14797,126.61545 188.09698,126.23884 188.88103,125.83426 C 190.13778,125.18575 194.42624,124.39405 195.74264,126.88783 C 196.47729,128.27954 194.8963,130.09225 193.08193,131.18247 C 191.81447,131.94406 188.79693,133.81095 187.39442,134.60211 C 186.19728,135.27743 184.57525,136.64419 183.26613,138.32716 C 182.48704,139.32874 182.02493,141.19807 182.06407,142.77176 C 182.11627,144.81113 183.38492,146.68761 185.08192,147.96819 C 186.86345,149.31255 189.42564,150.29499 190.84115,150.89135 C 192.24157,151.48135 194.64824,152.36444 196.30163,153.22394 C 198.01157,154.11284 199.57123,155.47605 199.49835,156.78838 C 199.37961,158.92645 195.90278,159.61485 193.04953,159.97149 C 189.91907,160.36278 186.0114,160.58154 182.53671,160.94352 C 179.3391,161.27663 175.02337,162.52939 172.24336,164.34373 C 169.25839,166.29183 167.5526,169.07566 167.37525,172.18623 C 167.25437,174.30631 167.70653,176.20029 168.46532,177.82784 C 168.36558,177.86871 168.26913,177.91069 168.17034,177.95012 C 166.13451,178.76255 163.62292,179.61548 161.93014,179.79854 C 160.73392,179.9279 158.36764,180.04854 156.93014,178.79854 C 156.93014,180.79854 161.16347,181.93094 164.24264,181.54854 C 165.98438,181.33223 168.23313,181.03798 170.05625,180.46528 C 170.07098,180.46065 170.08958,180.45406 170.10435,180.44941 z M 176.09328,178.46535 C 178.20871,180.14299 181.25444,181.23088 183.6927,181.95885 C 187.64348,183.1384 191.93142,183.66596 195.74816,183.66596 C 198.6255,183.66596 202.091,183.39927 204.76343,182.3023 C 206.81253,181.4612 207.93014,180.74309 207.93014,179.03598 C 207.93014,177.54905 206.59278,175.89601 202.75688,175.14438 C 200.74845,174.75084 198.09373,174.58068 195.65892,174.57757 C 192.67058,174.5742 188.89873,175.10322 185.60261,175.73593 C 183.13768,176.20908 180.07065,177.00371 177.93014,177.79854 C 177.30983,178.02888 176.69965,178.25092 176.09328,178.46535 z M 185.81526,121.24712 C 185.83606,121.31135 185.61671,121.48452 185.47978,121.49091 C 185.36309,121.49636 185.06343,121.32984 185.06923,121.27512 C 185.07772,121.19509 185.32888,121.03155 185.42765,121.02123 C 185.59806,121.00343 185.79231,121.17625 185.81526,121.24712 z"
       style="fill:#fff;fill-rule:evenodd" />
  </g>
 <use xlink:href="#s" transform="translate(345,0)"/>
 <use xlink:href="#s" transform="translate(0,240)"/>
 <use xlink:href="#s" transform="translate(345,240)"/>
</svg>
